<?xml version="1.0" encoding="UTF-8" standalone="no"?>
<svg
   viewBox="0 0 680.912 246.33333"
   height="246.33333"
   width="680.91199"
   xml:space="preserve"
   id="svg2"
   version="1.1"
   xmlns="http://www.w3.org/2000/svg"
   xmlns:svg="http://www.w3.org/2000/svg"
   xmlns:rdf="http://www.w3.org/1999/02/22-rdf-syntax-ns#"
   xmlns:cc="http://creativecommons.org/ns#"
   xmlns:dc="http://purl.org/dc/elements/1.1/"><metadata
     id="metadata8"><rdf:RDF><cc:Work
         rdf:about=""><dc:format>image/svg+xml</dc:format><dc:type
           rdf:resource="http://purl.org/dc/dcmitype/StillImage" /></cc:Work></rdf:RDF></metadata><defs
     id="defs6" /><g
     id="g919"
     transform="translate(0,-143.58401)"><path
       d="m 556.89599,347.95334 c -9.19867,0 -21.61867,-0.472 -28.16667,-1.50934 V 185.96534 c 7.05867,-0.41466 17.46,-0.66 28.16667,-0.66 48.67999,0 72.34399,26.76267 72.34399,81.80933 0,55.152 -22.98933,80.83867 -72.34399,80.83867 m 3.156,-204.36666 c -26.10667,0 -43.38,0.448 -57.256,0.81066 -8.62134,0.22134 -15.428,0.40134 -21.872,0.40134 h -1.2 v 243.87999 l 9.63866,0.23333 c 19.23867,0.47334 41.04534,1.00534 62.92,1.00534 84.152,0 128.62933,-43.132 128.62933,-124.74 0,-79.548 -41.792,-121.59066 -120.85999,-121.59066"
       style="fill:#003480;fill-opacity:1;fill-rule:nonzero;stroke:none;stroke-width:0.133333"
       id="path18" /><path
       d="m 78.508398,297.71334 23.832262,-74.892 c 3.19947,-9.996 6.41094,-21.57467 8.85627,-31.87733 2.28693,8.828 5.38333,19.60133 9.23747,32.12 l 23.89893,74.64933 z m 66.290262,-152.10266 -0.276,-0.81467 H 83.346931 L 0,389.19067 h 49.402132 l 15.985866,-50.24 H 157.536 l 16.084,50.24 h 54.25066 l -83.072,-243.57999"
       style="fill:#003480;fill-opacity:1;fill-rule:nonzero;stroke:none;stroke-width:0.133333"
       id="path20" /><path
       d="m 306.22933,185.42801 c 3.74533,-0.112 16.34933,-0.448 34.75733,-0.448 26.96,0 40.06266,11.46533 40.06266,35.04933 0,23.256 -13.96933,35.04933 -41.51733,35.04933 h -33.30266 z m 88.46533,119.67466 c -3.72267,-6.368 -8.12934,-12.83333 -11.62934,-17.73866 31.05334,-10.95734 49.65734,-35.78934 49.65734,-69.27867 0,-48.73733 -30.54534,-74.50133 -88.33734,-74.50133 -25.57066,0 -48.92133,0.504 -65.97599,0.87067 -8.84667,0.19333 -15.836,0.34133 -19.81734,0.34133 h -1.2 v 244.39466 h 48.83734 v -93.20666 h 27.02933 l 55.02933,93.20666 h 58.74267 l -52.336,-84.088"
       style="fill:#003480;fill-opacity:1;fill-rule:nonzero;stroke:none;stroke-width:0.133333"
       id="path22" /></g></svg>
