<?xml version="1.0" encoding="UTF-8" standalone="no"?>
<svg
   width="90.386597"
   height="46"
   viewBox="0 0 90.386597 46"
   fill="none"
   version="1.1"
   id="svg3066"
   xmlns="http://www.w3.org/2000/svg"
   xmlns:svg="http://www.w3.org/2000/svg">
  <defs
     id="defs3070" />
  <g
     id="g3265"
     transform="translate(0,-2)">
    <path
       d="M 65.536573,2 H 0 V 48 H 65.536573 V 47.9973 C 65.661679,47.99908 65.787079,48 65.912675,48 79.418197,48 90.36662,37.702532 90.36662,25 90.36662,12.297468 79.418197,2 65.912675,2 65.787079,2 65.661679,2.0008906 65.536573,2.00266 Z"
       fill="#ffffff"
       id="path3054"
       style="fill:#ffffff;stroke-width:0.948633" />
    <path
       d="m 31.924,18.2197 h 1.7078 V 37.415 H 31.924 Z"
       fill="#dd0000"
       id="path3056" />
    <path
       d="M 9.88665,12.5031 H 8.17687 v 9.4267 h 1.70978 z"
       fill="#dd0000"
       id="path3058" />
    <path
       d="M 9.88665,25.9855 H 8.17687 v 11.4291 h 1.70978 z"
       fill="#dd0000"
       id="path3060" />
    <path
       fill-rule="evenodd"
       clip-rule="evenodd"
       d="M 57.5702,2 H 0 V 48 H 57.5702 C 48.6416,44.1852 42.3845,35.3233 42.3845,25 42.3845,14.6767 48.6416,5.81483 57.5702,2 Z M 37.7974,8.41119 V 41.5255 L 29.5859,41.5142 C 28.5835,41.5104 27.7758,40.717 27.772,39.729 l 0.0058,-23.7689 c 0.0019,-0.9842 0.8057,-1.7795 1.7984,-1.7833 H 33.628 V 8.41119 Z M 25.9749,8.41477 H 21.8094 V 41.5253 h 4.1655 z M 12.2268,41.5142 c 0.9985,-0.0038 1.8119,-0.7972 1.8138,-1.7852 h 0.0039 V 25.3661 c 0,-1.0353 -0.8655,-1.874 -1.918,-1.874 h 0.1812 c 0.9542,0 1.7349,-0.7557 1.7349,-1.6927 V 10.1983 C 14.0406,9.21223 13.2272,8.41691 12.2364,8.41691 H 4.01902 L 4.01709,41.5142 Z m 7.778,-33.09943 h -4.1617 v 4.08803 h 4.1617 z m -4.1617,5.76183 h 4.1617 v 27.3487 h -4.1617 z"
       fill="#dd0000"
       id="path3062" />
    <path
       fill-rule="evenodd"
       clip-rule="evenodd"
       d="m 90.3866,25 c 0,12.7026 -10.2974,23 -23,23 -12.7025,0 -23,-10.2974 -23,-23 0,-12.7025 10.2975,-23 23,-23 12.7026,0 23,10.2975 23,23 z M 70.6787,12.875 v 8.8466 h 8.7802 v 6.6108 h -8.7802 v 8.7926 h -6.5823 v -8.7926 h -8.782 v -6.6108 h 8.782 V 12.875 Z"
       fill="#212529"
       id="path3064" />
  </g>
</svg>
