<?xml version="1.0" encoding="UTF-8" standalone="no"?>
<!-- Created with Inkscape (http://www.inkscape.org/) -->

<svg
   width="56"
   height="56"
   viewBox="0 0 148 148"
   fill="none"
   version="1.1"
   id="svg1122"
   xmlns="http://www.w3.org/2000/svg"
   xmlns:svg="http://www.w3.org/2000/svg"
   xmlns:rdf="http://www.w3.org/1999/02/22-rdf-syntax-ns#"
   xmlns:cc="http://creativecommons.org/ns#"
   xmlns:dc="http://purl.org/dc/elements/1.1/">
  <defs
     id="defs1126" />
  <title
     id="title1116">BILD Logo</title>
  <path
     fill-rule="evenodd"
     clip-rule="evenodd"
     d="M0 148h148V0H0v148z"
     fill="#D00"
     id="path1118" />
  <path
     fill-rule="evenodd"
     clip-rule="evenodd"
     d="M77.042 132.188h14.354V15.741H77.042v116.447zM30.23 63.164h5.893V29.992h-5.892v33.172zm0 54.457h5.893V77.418h-5.892v40.203zM44.209 15.617H15.883l-.007 116.41 28.298-.002c3.45-.008 6.245-2.803 6.253-6.281l.001-47.951v-2.557c0-3.635-2.975-6.591-6.61-6.591l.626.004c3.29 0 5.984-2.657 5.984-5.947V21.9c-.01-3.479-2.804-6.275-6.22-6.283zm67.865 102.004h5.891V50.107h-5.891v67.514zm5.885-102.007V35.88h-13.971c-3.417.008-6.194 2.804-6.203 6.281l-.016 83.583c.008 3.478 2.804 6.273 6.255 6.281l28.296.039V15.614h-14.361zM56.645 29.992H71V15.617H56.645v14.375zm0 102.072H71V35.887H56.645v96.177z"
     fill="#fff"
     id="path1120" />
  <metadata
     id="metadata1224">
    <rdf:RDF>
      <cc:Work
         rdf:about="">
        <dc:title>BILD Logo</dc:title>
      </cc:Work>
    </rdf:RDF>
  </metadata>
</svg>
