<?xml version="1.0" encoding="UTF-8" standalone="no"?>
<!-- Generator: Adobe Illustrator 23.0.1, SVG Export Plug-In . SVG Version: 6.00 Build 0)  -->

<svg
   version="1.1"
   id="Livello_1"
   x="0px"
   y="0px"
   viewBox="0 0 512 512"
   style="enable-background:new 0 0 512 512;"
   xml:space="preserve"
   xmlns="http://www.w3.org/2000/svg"
   xmlns:svg="http://www.w3.org/2000/svg"><defs
   id="defs1272" />
<style
   type="text/css"
   id="style1264">
	.st0{fill-rule:evenodd;clip-rule:evenodd;fill:#FFFFFF;}
</style>
<g
   id="Artboard">
	<rect
   id="Rectangle"
   width="512"
   height="512"
   x="0"
   y="0" />
	<path
   id="Fill-1"
   class="st0"
   d="m 306.7,188.2 14.1,-47.5 14.5,47.5 z m 33.4,-70.6 c -0.8,-2.5 -1.8,-4.1 -2.8,-4.9 -1.1,-0.8 -2.8,-1.1 -5.1,-1.1 h -20.5 c -2.4,0 -4.1,0.4 -5.2,1.2 -1.1,0.8 -2,2.4 -2.7,4.8 l -37.4,112.1 c -0.5,0.6 -0.7,1.8 -0.7,3.5 0,2.7 1.6,4.1 4.9,4.1 h 15.3 c 1.4,0 2.6,-0.1 3.4,-0.2 0.9,-0.1 1.6,-0.4 2.1,-0.9 0.5,-0.5 1,-1.2 1.4,-2.1 0.4,-0.9 0.8,-2.2 1.3,-3.7 l 5.8,-19.6 H 342 l 6,19.2 c 0.5,1.7 0.9,2.9 1.4,3.9 0.5,0.9 1,1.7 1.6,2.2 0.6,0.5 1.3,0.9 2.1,1 0.8,0.1 1.9,0.2 3.2,0.2 h 16.4 c 3.3,0 4.9,-1.3 4.9,-4.1 0,-0.8 0,-1.4 -0.1,-1.7 -0.1,-0.3 -0.3,-0.9 -0.6,-1.9 z m 7,157.2 c -3.1,0 -5.1,0.4 -6.1,1.3 -1,0.9 -1.5,2.7 -1.5,5.4 V 348 l -34.9,-66.7 c -1.4,-2.8 -2.8,-4.6 -4.1,-5.4 -1.4,-0.8 -3.7,-1.1 -7.1,-1.1 h -10.9 c -3.1,0 -5.1,0.4 -6.1,1.3 -1,0.9 -1.5,2.7 -1.5,5.4 v 112.2 c 0,2.7 0.5,4.5 1.4,5.4 0.9,0.9 2.9,1.3 6,1.3 h 12 c 3,0 5.1,-0.4 6.1,-1.3 1,-0.9 1.5,-2.7 1.5,-5.4 V 327 l 34.9,66.9 c 1.4,2.8 2.8,4.6 4.1,5.4 1.4,0.8 3.7,1.1 7.1,1.1 h 10.9 c 3.1,0 5.1,-0.4 6.1,-1.3 1,-0.9 1.5,-2.7 1.5,-5.4 V 281.5 c 0,-2.7 -0.5,-4.5 -1.5,-5.4 -1,-0.9 -3,-1.3 -6.1,-1.3 z m 100.8,19.8 V 447.9 H 64.1 V 294.6 l 30.4,-30.4 c 4.5,-4.5 4.5,-11.8 0,-16.3 L 64.1,217.5 V 64.1 h 383.8 v 153.3 l -30.4,30.4 c -4.5,4.5 -4.5,11.8 0,16.3 z m 27.5,-258 H 36.6 V 230.7 L 61.9,256 36.5,281.4 V 475.5 H 475.4 V 281.4 L 450.1,256 475.5,230.6 v -194 z m -293.3,337.7 52.2,-73.4 c 0.8,-1.2 1.4,-2.1 1.6,-2.8 0.2,-0.7 0.4,-1.5 0.4,-2.5 v -14.1 c 0,-2.7 -0.5,-4.5 -1.5,-5.4 -1,-0.9 -3,-1.3 -6.1,-1.3 h -75.4 c -2.7,0 -4.5,0.5 -5.3,1.5 -0.8,1 -1.2,3.1 -1.2,6.3 v 10.6 c 0,3.2 0.4,5.3 1.2,6.3 0.8,1 2.6,1.5 5.3,1.5 h 46.5 l -51.5,73.4 c -1.3,1.7 -2,3.3 -2,4.9 v 14.5 c 0,2.7 0.5,4.5 1.5,5.4 1,0.9 3,1.3 6.1,1.3 h 77.7 c 2.7,0 4.5,-0.5 5.3,-1.5 0.8,-1 1.2,-3.1 1.2,-6.3 v -10.6 c 0,-3.2 -0.4,-5.3 -1.2,-6.3 -0.8,-1 -2.6,-1.5 -5.3,-1.5 h -49.5 z m 26.5,-187.2 c 0,4.8 -0.3,8.9 -1,12.1 -0.6,3.2 -1.7,5.9 -3.2,7.9 -1.5,2 -3.4,3.4 -5.8,4.2 -2.4,0.8 -5.4,1.2 -8.9,1.2 h -14.5 v -76.2 h 14.5 c 6.7,0 11.5,2 14.5,5.9 2.9,3.9 4.4,10.4 4.4,19.5 z m 8.4,-69.5 c -7.1,-4 -16.1,-6 -26.9,-6 H 154 c -3.1,0 -5.1,0.4 -6.1,1.3 -1,0.9 -1.5,2.7 -1.5,5.4 v 112.2 c 0,2.7 0.5,4.5 1.5,5.4 1,0.9 3,1.3 6.1,1.3 h 40.6 c 19.2,0 32.3,-8.2 39.3,-24.5 1.6,-3.8 2.8,-7.6 3.4,-11.4 0.6,-3.8 1,-8.7 1,-14.5 V 163 c 0,-6.7 -0.3,-12 -1,-15.9 -0.6,-3.9 -1.8,-7.5 -3.4,-10.9 -4.2,-8.4 -9.8,-14.6 -16.9,-18.6 z" />
</g>
</svg>
