<?xml version="1.0" encoding="UTF-8" standalone="no"?>
<!-- Generator: Adobe Illustrator 23.0.1, SVG Export Plug-In . SVG Version: 6.00 Build 0)  -->

<svg
   version="1.1"
   id="Livello_1"
   x="0px"
   y="0px"
   viewBox="0 0 480.28207 125.98666"
   xml:space="preserve"
   width="480.28207"
   height="125.98666"
   xmlns="http://www.w3.org/2000/svg"
   xmlns:svg="http://www.w3.org/2000/svg"
   xmlns:rdf="http://www.w3.org/1999/02/22-rdf-syntax-ns#"
   xmlns:cc="http://creativecommons.org/ns#"
   xmlns:dc="http://purl.org/dc/elements/1.1/"><metadata
   id="metadata967"><rdf:RDF><cc:Work
       rdf:about=""><dc:format>image/svg+xml</dc:format><dc:type
         rdf:resource="http://purl.org/dc/dcmitype/StillImage" /></cc:Work></rdf:RDF></metadata><defs
   id="defs965">
	
	
</defs>
<style
   type="text/css"
   id="style957">
	.st0{fill-rule:evenodd;clip-rule:evenodd;fill:#FFFFFF;}
</style>
<g
   id="g1676"><g
     transform="translate(150.28207,-238.2)"
     id="g1666" /><g
     transform="translate(-109.9,-74.71334)"
     id="g1662"><path
       id="Fill-1"
       style="clip-rule:evenodd;fill:#ffffff;fill-rule:evenodd"
       d="m 180.5,81.000001 c -7.1,-4 -16.1,-6 -26.9,-6 h -36.1 c -3.1,0 -5.1,0.4 -6.1,1.3 -1,0.9 -1.5,2.7 -1.5,5.4 V 193.9 c 0,2.7 0.5,4.5 1.5,5.4 1,0.9 3,1.3 6.1,1.3 h 40.6 c 19.2,0 32.3,-8.2 39.3,-24.5 1.6,-3.8 2.8,-7.6 3.4,-11.4 0.6,-3.8 1,-8.7 1,-14.5 v -23.8 c 0,-6.7 -0.3,-12 -1,-15.9 -0.6,-3.9 -1.8,-7.5 -3.4,-10.899999 -4.2,-8.4 -9.8,-14.6 -16.9,-18.6 z M 172.1,150.5 c 0,4.8 -0.3,8.9 -1,12.1 -0.6,3.2 -1.7,5.9 -3.2,7.9 -1.5,2 -3.4,3.4 -5.8,4.2 -2.4,0.8 -5.4,1.2 -8.9,1.2 H 138.7 V 99.700001 h 14.5 c 6.7,0 11.5,1.999999 14.5,5.899999 2.9,3.9 4.4,10.4 4.4,19.5 z M 303.6,81.000001 c -0.8,-2.5 -1.8,-4.1 -2.8,-4.9 -1.1,-0.8 -2.8,-1.1 -5.1,-1.1 h -20.5 c -2.4,0 -4.1,0.4 -5.2,1.2 -1.1,0.8 -2,2.4 -2.7,4.8 L 229.9,193.1 c -0.5,0.6 -0.7,1.8 -0.7,3.5 0,2.7 1.6,4.1 4.9,4.1 h 15.3 c 1.4,0 2.6,-0.1 3.4,-0.2 0.9,-0.1 1.6,-0.4 2.1,-0.9 0.5,-0.5 1,-1.2 1.4,-2.1 0.4,-0.9 0.8,-2.2 1.3,-3.7 l 5.8,-19.6 h 42.1 l 6,19.2 c 0.5,1.7 0.9,2.9 1.4,3.9 0.5,0.9 1,1.7 1.6,2.2 0.6,0.5 1.3,0.9 2.1,1 0.8,0.1 1.9,0.2 3.2,0.2 h 16.4 c 3.3,0 4.9,-1.3 4.9,-4.1 0,-0.8 0,-1.4 -0.1,-1.7 -0.1,-0.3 -0.3,-0.9 -0.6,-1.9 z M 270.2,151.6 l 14.1,-47.5 14.5,47.5 z m 135.58207,22.61334 52.2,-73.4 c 0.8,-1.2 1.4,-2.1 1.6,-2.8 0.2,-0.7 0.4,-1.5 0.4,-2.5 v -14.1 c 0,-2.7 -0.5,-4.5 -1.5,-5.4 -1,-0.9 -3,-1.3 -6.1,-1.3 h -75.4 c -2.7,0 -4.5,0.5 -5.3,1.5 -0.8,1 -1.2,3.1 -1.2,6.3 v 10.6 c 0,3.2 0.4,5.3 1.2,6.3 0.8,1 2.6,1.5 5.3,1.5 h 46.5 l -51.5,73.4 c -1.3,1.7 -2,3.3 -2,4.9 v 14.5 c 0,2.7 0.5,4.5 1.5,5.4 1,0.9 3,1.3 6.1,1.3 h 77.7 c 2.7,0 4.5,-0.5 5.3,-1.5 0.8,-1 1.2,-3.1 1.2,-6.3 v -10.6 c 0,-3.2 -0.4,-5.3 -1.2,-6.3 -0.8,-1 -2.6,-1.5 -5.3,-1.5 z m 165,-99.5 c -3.1,0 -5.1,0.4 -6.1,1.3 -1,0.9 -1.5,2.7 -1.5,5.4 v 66.5 l -34.9,-66.7 c -1.4,-2.8 -2.8,-4.6 -4.1,-5.4 -1.4,-0.8 -3.7,-1.1 -7.1,-1.1 h -10.9 c -3.1,0 -5.1,0.4 -6.1,1.3 -1,0.9 -1.5,2.7 -1.5,5.4 v 112.2 c 0,2.7 0.5,4.5 1.4,5.4 0.9,0.9 2.9,1.3 6,1.3 h 12 c 3,0 5.1,-0.4 6.1,-1.3 1,-0.9 1.5,-2.7 1.5,-5.4 v -66.7 l 34.9,66.9 c 1.4,2.8 2.8,4.6 4.1,5.4 1.4,0.8 3.7,1.1 7.1,1.1 h 10.9 c 3.1,0 5.1,-0.4 6.1,-1.3 1,-0.9 1.5,-2.7 1.5,-5.4 v -112.2 c 0,-2.7 -0.5,-4.5 -1.5,-5.4 -1,-0.9 -3,-1.3 -6.1,-1.3 z" /></g></g>
</svg>
