<?xml version="1.0" encoding="UTF-8" standalone="no"?>
<!-- Generator: Adobe Illustrator 19.2.1, SVG Export Plug-In . SVG Version: 6.00 Build 0)  -->

<svg
   version="1.1"
   id="layer"
   x="0px"
   y="0px"
   viewBox="0 0 600 60.563732"
   xml:space="preserve"
   width="600"
   height="60.563732"
   xmlns="http://www.w3.org/2000/svg"
   xmlns:svg="http://www.w3.org/2000/svg"><defs
   id="defs4543">
	

		
		
		
		
		
		
		
		
		
		
		
		
		
	</defs>
<style
   type="text/css"
   id="style4510">
	.st0{fill:#111C4E;}
	.st1{fill:#DB0032;}
	.st2{fill:#FFFFFF;}
</style>
<g
   id="g1184"><g
     id="g1150"
     style="fill:#ffffff"><polygon
       class="st0"
       points="73.5,350.3 54,337.5 23.8,350.3 41.6,329.4 21.8,316.5 52.6,316.5 73.5,292 73.5,316.5 103.3,316.5 73.5,329.2 "
       id="polygon4512"
       transform="translate(-21.8,-290.83627)"
       style="fill:#ffffff" /><path
       class="st0"
       d="m 88.7,13.06373 c 1,0 1.9,-0.8 1.9,-1.9 v -8.2 c 0,-1 -0.8,-1.9 -1.9,-1.9 H 56.8 v 12 z"
       id="path4514"
       style="fill:#ffffff" /><path
       class="st0"
       d="m 88.7,59.56373 c 1,0 1.9,-0.8 1.9,-1.9 0,0 0,0 0,0 v -8.2 c 0,-1.1 -0.9,-1.9 -1.9,-1.9 0,0 0,0 0,0 H 56.8 v 12 z"
       id="path4516"
       style="fill:#ffffff" /><path
       class="st0"
       d="m 517.8,1.06373 h -39.9 c -1,0 -1.9,0.8 -1.9,1.9 v 8.2 c 0,1.1 0.9,1.9 1.9,1.9 h 14 v 44.7 c 0,1.1 0.9,1.9 1.9,1.9 h 8.2 c 1.1,0 1.9,-0.9 1.9,-1.9 v -44.7 h 14 c 1.1,0 1.9,-0.9 1.9,-1.9 v -8.2 c -0.1,-1 -0.9,-1.9 -2,-1.9 z"
       id="path4518"
       style="fill:#ffffff" /><path
       class="st0"
       d="m 358.6,14.26373 c -0.9,-2.5 -2.3,-4.8 -4.2,-6.8 -1.9,-2 -4.2,-3.5 -6.7,-4.6 -2.8,-1.2 -5.8,-1.8 -8.9,-1.7 h -21.7 c -1.1,0 -1.9,0.8 -1.9,1.9 0,0 0,0 0,0 v 54.7 c 0,1.1 0.9,1.9 1.9,1.9 h 8.2 c 1.1,0 1.9,-0.9 1.9,-1.9 v -14 h 11.6 c 3,0 6,-0.5 8.8,-1.7 5,-2.1 9,-6.2 10.9,-11.3 1,-2.7 1.5,-5.6 1.5,-8.4 0,-2.8 -0.4,-5.5 -1.4,-8.1 z m -11.3,11.9 c -0.4,1.1 -1,2.1 -1.8,3 -0.7,0.8 -1.7,1.4 -2.7,1.8 -1,0.5 -2.8,0.7 -6.4,0.7 h -9.2 v -18.5 h 12.1 c 1.2,0 2.4,0.2 3.5,0.7 1,0.4 2,1.1 2.7,1.9 0.8,0.8 1.4,1.8 1.7,2.9 0.4,1.2 0.6,2.5 0.6,3.8 0.1,1.2 -0.1,2.5 -0.5,3.7 z"
       id="path4520"
       style="fill:#ffffff" /><path
       class="st0"
       d="m 276.9,17.86373 c -0.1,0.9 0.2,1.8 0.7,2.6 0.6,0.8 1.3,1.4 2.1,1.8 1.1,0.6 2.4,1 3.6,1.2 1.5,0.3 3,0.6 4.6,0.9 2.8,0.4 5.5,1 8.1,1.6 2.6,0.6 5,1.6 7.2,3 2.1,1.4 3.9,3.2 5.1,5.5 1.3,2.7 1.9,5.6 1.6,8.5 0,3 -0.9,5.9 -2.5,8.5 -1.5,2.2 -3.5,4.1 -5.8,5.4 -2.3,1.4 -4.7,2.3 -7.3,2.8 -2.8,0.5 -5.6,0.7 -8.5,0.6 -6.6,-0.3 -16.5,-4.1 -21.4,-10.9 -0.7,-0.7 -0.6,-1.9 0.1,-2.5 0,0 0,0 0,0 l 6.1,-6.2 c 0.5,-0.6 1.4,-0.7 2.1,-0.2 0.2,0.1 0.3,0.3 0.4,0.5 2.9,4.2 8.6,7.4 13.1,7.6 1.4,0.1 2.8,0.1 4.1,-0.2 1.3,-0.2 2.5,-0.5 3.7,-1.1 1,-0.4 1.9,-1.1 2.6,-2 0.7,-0.9 1,-2.1 1.1,-3.2 0.1,-1.1 -0.2,-2.2 -0.8,-3.1 -0.7,-0.9 -1.5,-1.6 -2.6,-2.1 -1.3,-0.6 -2.6,-1.1 -4,-1.3 -1.6,-0.3 -3.2,-0.6 -4.8,-0.8 -2.6,-0.3 -5.1,-0.8 -7.6,-1.5 -2.4,-0.7 -4.7,-1.7 -6.8,-3.1 -2,-1.3 -3.7,-3.1 -4.8,-5.2 -1.3,-2.3 -1.9,-5 -1.6,-7.7 0.1,-2.8 0.9,-5.6 2.4,-8 1.3,-2.2 3.2,-4.1 5.3,-5.5 2.2,-1.4 4.7,-2.4 7.3,-3 5.2,-1.2 10.6,-1 15.7,0.7 4.9,1.7 9.2,4.9 12.2,9.1 0.6,0.7 0.6,1.7 -0.1,2.4 -0.8,0.9 -5.8,5.8 -5.8,5.8 -0.6,0.7 -1.6,0.9 -2.3,0.3 -0.2,-0.1 -0.3,-0.3 -0.4,-0.5 -2.5,-4 -6.8,-6.6 -11.5,-6.8 -4.9,-0.1 -10.4,1 -10.6,6.1 z"
       id="path4522"
       style="fill:#ffffff" /><path
       class="st0"
       d="m 251.8,8.16373 c -2.7,-2.6 -6,-4.6 -9.5,-5.9 -7.3,-2.7 -15.3,-2.7 -22.6,0 -7.3,2.7 -13.1,8.3 -16.1,15.4 -1.7,4 -2.5,8.3 -2.4,12.7 -0.1,4.4 0.7,8.7 2.4,12.7 1.5,3.6 3.7,6.8 6.5,9.5 2.7,2.6 5.9,4.6 9.5,5.9 7.6,2.7 15.8,2.7 23.4,-0.2 3.6,-1.4 6.8,-3.5 9.5,-6.2 2.7,-2.7 4.8,-6 6.2,-9.5 1.5,-3.9 2.3,-8 2.2,-12.2 0.1,-4.4 -0.8,-8.7 -2.4,-12.7 -1.7,-3.5 -3.9,-6.8 -6.7,-9.5 z m -4.8,30.3 c -0.8,2.1 -2.1,4.1 -3.8,5.7 -1.6,1.5 -3.5,2.7 -5.5,3.4 -2.2,0.8 -4.5,1.2 -6.8,1.2 -2.4,0 -4.7,-0.4 -6.9,-1.2 -2,-0.7 -3.9,-1.9 -5.4,-3.4 -1.6,-1.6 -2.9,-3.6 -3.7,-5.7 -1,-2.6 -1.5,-5.3 -1.4,-8 -0.1,-2.7 0.4,-5.5 1.4,-8 0.8,-2.1 2.1,-4.1 3.7,-5.7 1.6,-1.5 3.4,-2.7 5.5,-3.5 2.2,-0.8 4.5,-1.2 6.9,-1.2 2.3,0 4.6,0.4 6.8,1.2 2.1,0.8 3.9,2 5.5,3.5 1.6,1.6 2.9,3.6 3.7,5.7 1,2.5 1.5,5.2 1.4,7.9 0.1,2.8 -0.4,5.6 -1.4,8.1 z"
       id="path4524"
       style="fill:#ffffff" /><path
       class="st0"
       d="m 414.7,8.16373 c -2.7,-2.6 -5.9,-4.6 -9.5,-5.9 -7.3,-2.7 -15.3,-2.7 -22.6,0 -7.3,2.7 -13.1,8.3 -16.1,15.4 -1.7,4 -2.5,8.3 -2.4,12.7 -0.1,4.4 0.7,8.7 2.4,12.7 1.5,3.6 3.6,6.8 6.4,9.5 2.7,2.6 6,4.6 9.5,5.9 7.6,2.7 15.8,2.7 23.4,-0.2 3.6,-1.4 6.8,-3.5 9.5,-6.2 2.7,-2.7 4.8,-6 6.2,-9.6 1.5,-3.9 2.3,-8 2.2,-12.2 0.1,-4.4 -0.8,-8.7 -2.4,-12.7 -1.6,-3.5 -3.8,-6.7 -6.6,-9.4 z m -4.7,30.3 c -0.8,2.1 -2.1,4.1 -3.8,5.7 -1.6,1.5 -3.5,2.7 -5.6,3.4 -2.2,0.8 -4.5,1.2 -6.8,1.2 -2.4,0 -4.7,-0.4 -6.9,-1.2 -2,-0.7 -3.9,-1.9 -5.4,-3.4 -1.6,-1.6 -2.9,-3.6 -3.7,-5.7 -1,-2.6 -1.5,-5.3 -1.4,-8 -0.1,-2.7 0.4,-5.5 1.4,-8 0.8,-2.1 2.1,-4.1 3.7,-5.7 1.6,-1.5 3.4,-2.7 5.5,-3.5 2.2,-0.8 4.5,-1.2 6.9,-1.2 2.3,0 4.6,0.4 6.8,1.2 2.1,0.8 3.9,2 5.5,3.5 1.6,1.6 2.9,3.6 3.7,5.7 1,2.5 1.4,5.2 1.4,7.9 0.1,2.8 -0.4,5.6 -1.3,8.1 z"
       id="path4526"
       style="fill:#ffffff" /><path
       class="st0"
       d="m 141.3,1.06373 h -8.2 c -1.1,0 -1.9,0.9 -1.9,1.9 v 36.2 c 0,1.4 -0.2,2.7 -0.8,4 -0.5,1.1 -1.2,2 -2.1,2.8 -0.9,0.8 -2,1.4 -3.2,1.8 -1.6,0.4 -3.3,0.7 -5,0.6 -1.7,0 -3.4,-0.2 -5.1,-0.7 -1.2,-0.4 -2.3,-1 -3.3,-1.8 -0.9,-0.8 -1.6,-1.7 -2.1,-2.8 -0.5,-1.3 -0.8,-2.6 -0.8,-4 v -36.2 c 0,-1.1 -0.9,-1.9 -1.9,-1.9 v 0 h -8.2 c -1.1,0 -1.9,0.9 -1.9,1.9 v 36.5 c -0.1,3.1 0.6,6.1 1.9,8.9 1.2,2.5 2.9,4.8 5.1,6.6 2.2,1.8 4.7,3.2 7.5,4.1 5.8,1.8 12,1.8 17.7,0 2.7,-0.9 5.2,-2.2 7.4,-4.1 2.1,-1.8 3.8,-4.1 5,-6.6 1.3,-2.8 1.9,-5.9 1.9,-8.9 v -36.5 c 0,-0.9 -0.9,-1.8 -2,-1.8 0.1,0 0.1,0 0,0 z"
       id="path4528"
       style="fill:#ffffff" /><path
       class="st0"
       d="m 199.1,56.46373 -13.3,-16.5 c 0,0 10.8,-3.9 10.8,-17.6 0,-2.8 -0.5,-5.5 -1.4,-8.1 -0.9,-2.5 -2.3,-4.8 -4.2,-6.8 -1.9,-2 -4.2,-3.5 -6.7,-4.6 -2.8,-1.2 -5.8,-1.8 -8.9,-1.7 h -21.7 c -1,0 -1.9,0.9 -1.9,1.9 v 54.7 c 0,1.1 0.9,1.9 1.9,1.9 h 8.2 c 1.1,0 1.9,-0.9 1.9,-1.9 v -44.6 H 176 c 1.2,0 2.4,0.2 3.5,0.7 1,0.5 2,1.1 2.7,1.9 0.8,0.8 1.4,1.8 1.7,2.9 0.4,1.2 0.6,2.5 0.6,3.8 0,1.3 -0.2,2.5 -0.7,3.7 -0.4,1.1 -1,2.1 -1.8,2.9 -0.7,0.8 -1.7,1.4 -2.7,1.8 -1.1,0.5 -2.9,0.7 -6.4,0.7 h -5.1 c -1,0 -1.8,0.9 -1,2.1 l 19,25.1 c 0.4,0.5 0.9,0.8 1.5,0.8 h 10.5 c 1.7,0 2.7,-1.4 1.3,-3.1 z"
       id="path4530"
       style="fill:#ffffff" /><path
       class="st0"
       d="m 476.7,56.46373 -13.3,-16.5 c 0,0 10.8,-3.9 10.8,-17.6 0,-2.8 -0.5,-5.5 -1.4,-8.1 -0.9,-2.5 -2.3,-4.8 -4.2,-6.8 -1.9,-2 -4.2,-3.5 -6.7,-4.6 -2.8,-1.2 -5.8,-1.8 -8.8,-1.7 h -21.9 c -1.1,0 -1.9,0.9 -1.9,1.9 v 54.7 c 0,1.1 0.9,1.9 1.9,1.9 h 8.2 c 1.1,0 1.9,-0.9 1.9,-1.9 v -44.6 h 12.2 c 1.2,0 2.4,0.2 3.5,0.7 1,0.4 2,1.1 2.7,1.9 0.8,0.8 1.4,1.8 1.8,2.9 0.4,1.2 0.6,2.5 0.6,3.8 0,1.3 -0.2,2.5 -0.7,3.7 -0.4,1.1 -1,2.1 -1.8,3 -0.7,0.8 -1.7,1.4 -2.7,1.8 -1,0.5 -2.8,0.7 -6.4,0.7 h -5.1 c -1,0 -1.8,0.9 -1,2.1 l 19,25 c 0.4,0.5 0.9,0.8 1.5,0.8 h 10.5 c 1.7,0 2.7,-1.4 1.3,-3.1 z"
       id="path4532"
       style="fill:#ffffff" /></g><path
     class="st1"
     d="m 543.2,0.26373 h 55.2 c 0.9,0 1.6,0.7 1.6,1.6 v 57.1 c 0,0.9 -0.7,1.6 -1.6,1.6 h -55.2 c -0.9,0 -1.6,-0.7 -1.6,-1.6 v -57.1 c 0,-0.9 0.7,-1.6 1.6,-1.6 z"
     id="path4534" /><path
     class="st2"
     d="m 557.7,48.76373 v 1.2 c 0,0.7 0.5,1.3 1.2,1.3 0,0 0,0 0.1,0 h 25.3 c 0.7,0 1.3,-0.6 1.3,-1.3 0,0 0,0 0,0 v -5.9 c 0,-0.7 -0.6,-1.3 -1.3,-1.3 h -11.9 l 7.4,-9.9 c 4.4,-5.7 5.3,-12 3,-16.9 -2,-4.1 -6.2,-6.4 -11.6,-6.4 -8.4,0.1 -13.1,4.6 -13.3,12.9 v 2 c 0,0.7 0.5,1.3 1.2,1.3 0,0 0.1,0 0.1,0 h 5.7 c 0.7,0 1.3,-0.6 1.3,-1.3 l 0.1,-1.8 c 0.1,-2.2 1.1,-4.8 4.6,-4.8 2.9,0 4.4,1.9 4.5,3.8 0.1,2.1 -0.4,3.7 -2.3,6.1 l -14.8,19.5 c -0.4,0.2 -0.7,0.8 -0.6,1.5"
     id="path4536" /></g>
</svg>
