<?xml version="1.0" encoding="UTF-8" standalone="no"?>
<!-- Generator: Adobe Illustrator 23.0.1, SVG Export Plug-In . SVG Version: 6.00 Build 0)  -->

<svg
   version="1.1"
   id="Layer_1"
   x="0px"
   y="0px"
   viewBox="0 0 600.00227 69.619004"
   enable-background="new 0 0 2154.2 250"
   xml:space="preserve"
   width="600.00226"
   height="69.619003"
   xmlns="http://www.w3.org/2000/svg"
   xmlns:svg="http://www.w3.org/2000/svg"><defs
   id="defs1441" />
<g
   id="g1436"
   transform="matrix(0.27852671,0,0,0.27852671,0,-0.02785267)"
   style="fill:#ffffff">
	<polygon
   fill="#141b4d"
   points="214.1,245.6 133.2,192.4 8.1,245.4 81.8,159 0,105.3 127.5,105.3 214.1,3.8 214.1,105.3 337.7,105.3 214.1,158 "
   id="polygon1414"
   style="fill:#ffffff" />
	<path
   fill="#141b4d"
   d="m 367.7,53.4 c 4.3,0 7.9,-3.5 7.9,-7.8 v -34 c 0,-4.3 -3.5,-7.9 -7.9,-7.9 H 235.1 v 49.7 z"
   id="path1416"
   style="fill:#ffffff" />
	<path
   fill="#141b4d"
   d="m 367.7,246.1 c 4.3,0 7.9,-3.5 7.9,-7.8 v -34 c 0,-4.3 -3.5,-7.9 -7.9,-7.9 H 235.1 v 49.7 z"
   id="path1418"
   style="fill:#ffffff" />
	<path
   fill="#141b4d"
   d="m 2146.3,3.6 h -165.6 c -4.3,0 -7.9,3.5 -7.9,7.9 v 34 c 0,4.3 3.5,7.9 7.9,7.9 h 57.9 v 185.1 c 0,4.3 3.5,7.9 7.9,7.9 h 34 c 4.3,0 7.9,-3.5 7.9,-7.9 V 53.4 h 57.9 c 4.3,0 7.9,-3.5 7.9,-7.9 v -34 c 0,-4.4 -3.5,-7.9 -7.9,-7.9"
   id="path1420"
   style="fill:#ffffff" />
	<path
   fill="#141b4d"
   d="m 1486.3,58 c -3.9,-10.7 -9.8,-20.2 -17.4,-28.2 -7.6,-8 -17,-14.4 -27.8,-19.1 -10.9,-4.7 -23.3,-7.1 -36.8,-7.1 h -90.1 c -4.3,0 -7.9,3.5 -7.9,7.9 v 226.8 c 0,4.3 3.5,7.9 7.9,7.9 h 34 c 4.3,0 7.9,-3.5 7.9,-7.9 v -58.1 h 48.2 c 13.5,0 25.9,-2.3 36.6,-7 10.8,-4.6 20.1,-11 27.7,-19 7.6,-8 13.5,-17.3 17.5,-27.7 4,-10.4 6,-23.5 6,-35 0,-11.7 -1.9,-23 -5.8,-33.5 m -46.9,49.4 c -1.8,4.7 -4.3,8.9 -7.5,12.3 -3.1,3.4 -6.7,5.6 -11,7.5 -4.2,1.9 -11.8,3 -26.5,3 h -38.2 V 53.4 h 50.2 c 5.4,0 10.3,1 14.6,2.9 4.4,1.9 8.2,4.6 11.4,7.9 3.1,3.3 5.5,7.3 7.2,12 1.7,4.9 2.6,10.1 2.6,15.6 -0.1,5.5 -1,10.7 -2.8,15.6"
   id="path1422"
   style="fill:#ffffff" />
	<path
   fill="#141b4d"
   d="m 1147.7,73.2 c -0.2,5 1.1,8.1 3,10.8 2.1,3.1 5.2,5.6 9,7.6 4.3,2.2 9.3,4 15,5.2 6.2,1.4 12.6,2.6 18.9,3.7 11.5,1.8 22.8,4.1 33.7,6.8 11.4,2.8 21.4,7 30,12.6 8.9,5.7 15.9,13.4 21,22.7 5.1,9.4 7.4,21.4 6.8,35.6 -0.6,13.8 -4.1,25.6 -10.5,35.1 -6.3,9.3 -14.3,16.8 -24,22.5 -9.5,5.5 -18.8,9.6 -30.4,11.8 -11.4,2.1 -24.1,2.8 -35.2,2.3 -27.6,-1.2 -68.3,-17 -88.7,-45 -1.6,-2.2 -3.6,-6.1 0.8,-10.5 4.4,-4.5 25.4,-25.8 25.4,-25.8 4.2,-4.5 8.3,-1.3 10.1,1.3 11.9,17.5 35.7,30.5 54.4,31.3 9.8,0.4 11,0 17.1,-0.8 5.6,-0.7 10.5,-2.2 15.1,-4.3 4.2,-1.9 7.8,-4.5 10.6,-8.1 2.6,-3.3 4.1,-8 4.5,-13.5 0.4,-5.2 -1.1,-9.4 -3.5,-12.8 -2.6,-3.7 -6.3,-6.5 -10.6,-8.8 -4.9,-2.6 -10.5,-4.2 -16.7,-5.3 -6.7,-1.2 -13.3,-2.3 -19.7,-3.3 -10.6,-1.4 -21.2,-3.5 -31.4,-6.4 -10.5,-3 -20,-7.3 -28,-12.6 -8.4,-5.6 -15.1,-12.8 -20.1,-21.5 -5.1,-8.9 -7.4,-19 -6.8,-31.7 0.6,-12.8 3.8,-24.1 9.5,-33.5 5.7,-9.3 13.1,-17 22.1,-22.8 8.8,-5.7 18.9,-9.9 30.1,-12.4 21.8,-4.9 43.5,-4.1 65.1,2.7 23.3,7.4 41.9,25.2 50.5,37.9 1.6,2.3 3.2,6 -0.2,9.8 -3.4,3.8 -23.9,23.9 -23.9,23.9 -4.4,4.2 -9,3.2 -11.5,-0.4 -12.6,-18.5 -28.8,-26.8 -47.6,-28.1 -20.3,-1.7 -43,2.9 -43.9,24"
   id="path1424"
   style="fill:#ffffff" />
	<path
   fill="#141b4d"
   d="M 1043.7,32.9 C 1032.5,22.2 1019.3,14 1004.4,8.4 989.7,2.9 973.8,0.1 957.4,0.1 c -16.2,0 -31.9,2.8 -46.8,8.3 -15,5.6 -28.3,13.8 -39.6,24.5 -11.3,10.7 -20.4,24 -27.1,39.4 -6.7,15.5 -10,33.2 -10,52.7 0,19.7 3.3,37.5 9.9,52.8 6.5,15.4 15.6,28.6 26.8,39.3 11.2,10.7 24.4,18.9 39.3,24.5 14.7,5.5 30.6,8.3 47,8.3 18,0 34.8,-3 49.9,-9 15.2,-6 28.4,-14.7 39.3,-25.8 10.8,-11 19.4,-24.3 25.5,-39.6 6.1,-15.2 9.1,-32.2 9.1,-50.5 0,-19.5 -3.4,-37.2 -10,-52.7 -6.7,-15.4 -15.8,-28.7 -27,-39.4 m -19.9,125.7 c -3.8,9.4 -9.1,17.3 -15.6,23.5 -6.6,6.3 -14.3,11.1 -22.9,14.3 -8.8,3.2 -18.3,4.9 -28.3,4.9 -10.2,0 -19.8,-1.6 -28.6,-4.9 -8.6,-3.2 -16.2,-7.9 -22.5,-14.2 -6.4,-6.3 -11.5,-14.2 -15.4,-23.6 -3.9,-9.5 -5.8,-20.7 -5.8,-33.3 0,-12.6 2,-23.8 5.8,-33.3 3.8,-9.4 9,-17.3 15.5,-23.6 6.4,-6.3 14.1,-11.1 22.8,-14.4 8.8,-3.3 18.4,-5 28.5,-5 9.9,0 19.4,1.7 28.2,5 8.6,3.3 16.3,8.2 22.7,14.5 6.5,6.4 11.7,14.4 15.5,23.8 3.9,9.5 5.8,20.6 5.8,32.9 0.2,12.7 -1.8,23.9 -5.7,33.4"
   id="path1426"
   style="fill:#ffffff" />
	<path
   fill="#141b4d"
   d="M 1719,32.9 C 1707.8,22.2 1694.6,14 1679.7,8.4 c -14.7,-5.5 -30.6,-8.3 -47,-8.3 -16.2,0 -31.9,2.8 -46.8,8.3 -15,5.6 -28.3,13.8 -39.6,24.5 -11.3,10.7 -20.4,24 -27.1,39.4 -6.7,15.5 -10,33.2 -10,52.7 0,19.7 3.3,37.5 9.9,52.8 6.5,15.4 15.6,28.6 26.8,39.3 11.2,10.7 24.4,18.9 39.3,24.5 14.7,5.5 30.6,8.3 47,8.3 18,0 34.8,-3 49.9,-9 15.2,-6 28.4,-14.7 39.3,-25.8 10.8,-11 19.4,-24.3 25.5,-39.6 6.1,-15.2 9.1,-32.2 9.1,-50.5 0,-19.5 -3.4,-37.2 -10,-52.7 -6.8,-15.4 -15.8,-28.7 -27,-39.4 m -19.9,125.7 c -3.8,9.4 -9.1,17.3 -15.6,23.5 -6.6,6.3 -14.3,11.1 -22.9,14.3 -8.8,3.2 -18.3,4.9 -28.3,4.9 -10.2,0 -19.8,-1.6 -28.6,-4.9 -8.6,-3.2 -16.2,-7.9 -22.5,-14.2 -6.4,-6.3 -11.5,-14.2 -15.4,-23.6 -3.9,-9.5 -5.8,-20.7 -5.8,-33.3 0,-12.6 2,-23.8 5.8,-33.3 3.8,-9.4 9,-17.3 15.5,-23.6 6.4,-6.3 14.1,-11.1 22.8,-14.4 8.8,-3.3 18.4,-5 28.5,-5 9.9,0 19.4,1.7 28.2,5 8.6,3.3 16.3,8.2 22.7,14.5 6.5,6.4 11.7,14.4 15.5,23.8 3.9,9.5 5.8,20.6 5.8,32.9 0.1,12.7 -1.8,23.9 -5.7,33.4"
   id="path1428"
   style="fill:#ffffff" />
	<path
   fill="#141b4d"
   d="m 585.7,3.6 h -34.2 c -4.3,0 -7.9,3.5 -7.9,7.9 v 150.1 c 0,6.4 -1.1,12 -3.2,16.7 -2.1,4.6 -5,8.6 -8.6,11.7 -3.7,3.2 -8.3,5.7 -13.4,7.4 -5.3,1.8 -14.3,2.7 -20.5,2.7 -6.3,0 -15.8,-0.9 -21.2,-2.7 -5.3,-1.7 -9.9,-4.2 -13.8,-7.5 -3.7,-3.1 -6.7,-7 -8.7,-11.6 C 452.1,173.6 451,168 451,161.6 V 11.5 c 0,-4.3 -3.5,-7.9 -7.9,-7.9 h -34 c -4.3,0 -7.9,3.5 -7.9,7.9 v 151.3 c 0,13.9 2.6,26.4 7.7,37.1 5.1,10.7 12.2,19.9 21.2,27.4 8.8,7.4 19.2,13.1 30.8,16.8 11.4,3.7 23.9,5.6 36.9,5.6 12.8,0 25.2,-1.9 36.6,-5.6 11.6,-3.8 21.9,-9.5 30.6,-16.9 8.7,-7.5 15.7,-16.7 20.8,-27.3 5.1,-10.7 7.7,-23.2 7.7,-37.1 V 11.5 c 0.1,-4.4 -3.4,-7.9 -7.8,-7.9"
   id="path1430"
   style="fill:#ffffff" />
	<path
   fill="#141b4d"
   d="m 825,232.9 -55.3,-68.6 c 0,0 44.6,-16.2 44.6,-72.9 0,-11.7 -2,-22.9 -5.8,-33.5 -3.9,-10.7 -9.8,-20.2 -17.4,-28.2 -7.6,-8 -17,-14.4 -27.8,-19.1 C 752.4,6 740,3.6 726.5,3.6 h -90 c -4.3,0 -7.9,3.5 -7.9,7.9 v 226.8 c 0,4.4 3.5,7.9 7.9,7.9 h 33.9 c 4.3,0 7.9,-3.5 7.9,-7.9 V 53.4 h 50.4 c 5.4,0 10.3,1 14.6,2.9 4.4,1.9 8.2,4.6 11.4,7.9 3.1,3.3 5.5,7.3 7.2,12 1.7,4.8 2.6,10.1 2.6,15.6 0,5.5 -0.9,10.7 -2.7,15.5 -1.8,4.7 -4.3,8.9 -7.5,12.3 -3.1,3.4 -6.7,5.6 -11,7.5 -4.2,1.9 -11.8,3.1 -26.5,3.1 h -21.1 c -4.2,0 -7.4,3.8 -4.2,8.9 l 78.8,103.7 c 1.5,2.1 3.9,3.3 6.4,3.3 h 43.5 c 6.5,0 10.7,-5.9 4.8,-13.2"
   id="path1432"
   style="fill:#ffffff" />
	<path
   fill="#141b4d"
   d="m 1975.8,232.9 -55.3,-68.6 c 0,0 44.6,-16.2 44.6,-72.9 0,-11.7 -2,-22.9 -5.8,-33.5 -3.9,-10.7 -9.8,-20.2 -17.4,-28.2 -7.6,-8 -17,-14.4 -27.8,-19.1 -10.9,-4.7 -23.3,-7.1 -36.8,-7.1 h -90 c -4.3,0 -7.9,3.5 -7.9,7.9 v 226.8 c 0,4.4 3.5,7.9 7.9,7.9 h 33.9 c 4.3,0 7.9,-3.5 7.9,-7.9 V 53.4 h 50.4 c 5.4,0 10.3,1 14.6,2.9 4.4,1.9 8.2,4.6 11.4,7.9 3.1,3.3 5.5,7.3 7.2,12 1.7,4.8 2.6,10.1 2.6,15.6 0,5.5 -0.9,10.7 -2.7,15.5 -1.8,4.7 -4.3,8.9 -7.5,12.3 -3.1,3.4 -6.7,5.6 -11,7.5 -4.2,1.9 -11.8,3.1 -26.5,3.1 h -21.1 c -4.2,0 -7.4,3.8 -4.2,8.9 l 78.8,103.7 c 1.5,2.1 3.9,3.3 6.4,3.3 h 43.5 c 6.4,0 10.7,-5.9 4.8,-13.2"
   id="path1434"
   style="fill:#ffffff" />
</g>
</svg>
