<?xml version="1.0" encoding="UTF-8" standalone="no"?>
<!-- Created with Inkscape (http://www.inkscape.org/) -->

<svg
   version="1.1"
   id="svg840"
   xml:space="preserve"
   width="655.30383"
   height="59.67733"
   viewBox="0 0 655.30383 59.67733"
   xmlns="http://www.w3.org/2000/svg"
   xmlns:svg="http://www.w3.org/2000/svg"><defs
     id="defs844"><clipPath
       clipPathUnits="userSpaceOnUse"
       id="clipPath854"><path
         d="M 0,48.189 H 496.063 V 0 H 0 Z"
         id="path852" /></clipPath><clipPath
       clipPathUnits="userSpaceOnUse"
       id="clipPath864"><path
         d="M -247.035,29.2052 H 244.443 V -15.5531 H -247.035 Z"
         id="path862" /></clipPath></defs><g
     id="g846"
     transform="matrix(1.3333333,0,0,-1.3333333,-2.1865333,62.358)"><g
       id="g1116"><g
         id="g866"
         transform="matrix(1,0,0,-1,16.2789,34.408701)"><path
           d="m 0,0 v 6.359 h 25.319 v 10.68 H 0 v 13.98 H -14.639 V -10.979 H 30.659 V 0 Z"
           style="fill:#171616;fill-opacity:1;fill-rule:nonzero;stroke:none"
           id="path868" /></g><path
         d="m 51.0795,45.388401 h 14.64 v -41.998 h -14.64 z"
         style="fill:#171616;fill-opacity:1;fill-rule:nonzero;stroke:none"
         id="path870" /><g
         id="g872"
         transform="matrix(1,0,0,-1,123.3776,10.829501)"><path
           d="m 0,0 c -4.8,5.52 -13.14,8.819 -24.179,8.819 -17.579,0 -28.559,-7.979 -28.559,-22.379 0,-14.399 10.98,-22.379 28.559,-22.379 10.499,0 18.059,3.36 22.679,7.5 l -10.2,7.62 c -3.659,-2.94 -6.959,-4.14 -11.999,-4.14 -9.42,0 -14.22,4.2 -14.22,11.399 0,7.26 4.98,11.58 14.34,11.58 4.019,0 7.2,-0.72 10.079,-2.64 V -8.1 h -12.179 v -9.299 H 0 Z"
           style="fill:#171616;fill-opacity:1;fill-rule:nonzero;stroke:none"
           id="path874" /></g><g
         id="g876"
         transform="matrix(1,0,0,-1,180.1373,45.388101)"><path
           d="m 0,0 v 41.998 h -14.639 v -15.54 h -22.019 v 15.54 h -14.64 V 0 h 14.64 v 14.939 h 22.019 V 0 Z"
           style="fill:#171616;fill-opacity:1;fill-rule:nonzero;stroke:none"
           id="path878" /></g><g
         id="g880"
         transform="matrix(1,0,0,-1,231.6168,34.289001)"><path
           d="M 0,0 H -16.62 V 30.899 H -31.259 V 0 H -47.818 V -11.099 H 0 Z"
           style="fill:#171616;fill-opacity:1;fill-rule:nonzero;stroke:none"
           id="path882" /></g><path
         d="m 235.2785,45.388401 h 14.64 v -41.998 h -14.64 z"
         style="fill:#171616;fill-opacity:1;fill-rule:nonzero;stroke:none"
         id="path884" /><g
         id="g886"
         transform="matrix(1,0,0,-1,308.2946,45.388101)"><path
           d="M 0,0 V 41.998 H -12.839 L -37.198,16.859 v 25.139 h -14.1 V 0 h 15.48 l 21.659,22.799 V 0 Z"
           style="fill:#171616;fill-opacity:1;fill-rule:nonzero;stroke:none"
           id="path888" /></g><g
         id="g890"
         transform="matrix(1,0,0,-1,365.9547,10.829501)"><path
           d="m 0,0 c -4.8,5.52 -13.14,8.819 -24.18,8.819 -17.579,0 -28.558,-7.979 -28.558,-22.379 0,-14.399 10.979,-22.379 28.558,-22.379 10.5,0 18.06,3.36 22.68,7.5 l -10.199,7.62 c -3.66,-2.94 -6.96,-4.14 -12,-4.14 -9.42,0 -14.22,4.2 -14.22,11.399 0,7.26 4.98,11.58 14.34,11.58 4.02,0 7.199,-0.72 10.079,-2.64 V -8.1 h -12.18 v -9.299 H 0 Z"
           style="fill:#171616;fill-opacity:1;fill-rule:nonzero;stroke:none"
           id="path892" /></g><g
         id="g894"
         transform="matrix(1,0,0,-1,370.3483,9.390101)"><path
           d="m 0,0 c 0,-3.84 2.916,-6.899 7.128,-6.899 4.267,0 7.183,3.059 7.183,6.899 0,3.9 -2.916,6.9 -7.183,6.9 C 2.916,6.9 0,3.9 0,0"
           style="fill:#171616;fill-opacity:1;fill-rule:nonzero;stroke:none"
           id="path896" /></g><g
         id="g898"
         transform="matrix(1,0,0,-1,427.0582,24.389101)"><path
           d="m 0,0 c 0,-6.36 -4.979,-9.84 -13.02,-9.84 h -8.639 V 9.839 h 8.639 C -4.979,9.839 0,6.359 0,0 m 14.939,0 c 0,13.259 -10.439,20.999 -26.758,20.999 h -24.48 v -41.998 h 24.48 c 16.319,0 26.758,7.68 26.758,20.999"
           style="fill:#171616;fill-opacity:1;fill-rule:nonzero;stroke:none"
           id="path900" /></g><g
         id="g902"
         transform="matrix(1,0,0,-1,493.1178,13.949701)"><path
           d="M 0,0 V 10.56 H -46.138 V -31.438 H -0.66 v 10.559 h -31.139 v 5.339 H -6.42 v 9.72 H -31.799 V 0 Z"
           style="fill:#171616;fill-opacity:1;fill-rule:nonzero;stroke:none"
           id="path904" /></g></g></g></svg>
