<?xml version="1.0" encoding="UTF-8" standalone="no"?>
<!-- Created with Inkscape (http://www.inkscape.org/) -->

<svg
   version="1.1"
   id="svg1113"
   xml:space="preserve"
   width="452.57745"
   height="109.95866"
   viewBox="0 0 452.57745 109.95868"
   xmlns="http://www.w3.org/2000/svg"
   xmlns:svg="http://www.w3.org/2000/svg"><defs
     id="defs1117"><clipPath
       clipPathUnits="userSpaceOnUse"
       id="clipPath1129"><path
         d="M 0,200 H 650 V 0 H 0 Z"
         id="path1127" /></clipPath><clipPath
       clipPathUnits="userSpaceOnUse"
       id="clipPath1173"><path
         d="M 50.2842,64.4133 H 606.258 V 38.3564 H 50.2842 Z"
         id="path1171" /></clipPath></defs><g
     id="g1119"
     transform="matrix(1.3333333,0,0,-1.3333333,-57.143732,222.32839)"><g
       id="g2280"><g
         id="g1131"
         transform="translate(94.2288,156.5118)"><path
           d="m 0,0 c 0,-1.575 -0.786,-2.263 -2.361,-2.263 h -8.169 c -1.575,0 -2.361,0.688 -2.361,2.263 v 6.888 c 0,1.574 0.786,2.166 2.361,2.166 h 8.169 C -0.786,9.054 0,8.462 0,6.888 Z m 0.099,-57.965 c 0,-1.575 -0.69,-2.264 -2.263,-2.264 h -8.464 c -1.575,0 -2.363,0.689 -2.363,2.264 v 38.578 H -31 v -38.775 c 0,-1.476 -0.689,-2.067 -2.263,-2.067 h -8.268 c -1.572,0 -2.361,0.591 -2.361,2.067 v 38.775 h -5.314 c -1.476,0 -2.165,0.689 -2.165,2.263 v 5.511 c 0,1.574 0.492,2.263 2.165,2.263 h 5.314 v 4.232 c 0,10.039 5.216,15.057 15.155,15.057 3.149,0 5.906,-0.394 7.579,-0.983 1.18,-0.394 2.066,-0.788 2.066,-2.166 V 2.263 c 0,-1.477 -0.886,-2.165 -1.967,-2.066 -1.379,0.195 -2.954,0.492 -4.726,0.492 -3.049,0 -5.313,-1.674 -5.313,-6.201 V -9.35 h 28.934 c 1.573,0 2.263,-0.689 2.263,-2.263 z"
           style="fill:#fae600;fill-opacity:1;fill-rule:nonzero;stroke:none"
           id="path1133" /></g><g
         id="g1135"
         transform="translate(129.7572,139.5853)"><path
           d="m 0,0 c -6.987,0 -11.219,-3.937 -11.219,-14.074 0,-10.038 4.232,-14.073 11.219,-14.073 7.184,0 11.416,5.02 11.416,14.565 C 11.416,-4.232 7.184,0 0,0 m 24.21,-34.543 c 0,-13.581 -9.251,-20.765 -24.899,-20.765 -6.495,0 -13.777,0.984 -18.107,3.05 -1.18,0.591 -1.871,1.28 -1.377,2.658 l 1.672,5.314 c 0.394,1.378 1.18,1.967 2.755,1.476 3.937,-1.378 8.759,-2.461 14.074,-2.461 8.956,0 13.58,4.135 13.58,11.319 v 4.23 c -2.657,-5.018 -8.659,-7.676 -15.155,-7.676 -11.908,0 -20.961,6.693 -20.961,23.324 0,16.632 8.659,23.717 20.469,23.717 6.79,0 12.892,-3.05 15.549,-7.676 l 0.295,4.626 c 0.099,1.181 0.788,1.969 2.363,1.969 h 7.479 c 1.574,0 2.263,-0.691 2.263,-2.264 z"
           style="fill:#fae600;fill-opacity:1;fill-rule:nonzero;stroke:none"
           id="path1137" /></g><g
         id="g1139"
         transform="translate(214.7869,98.5466)"><path
           d="m 0,0 c 0,-1.575 -0.689,-2.263 -2.263,-2.263 h -8.464 c -1.575,0 -2.264,0.688 -2.264,2.263 v 29.229 c 0,6.692 -2.656,10.333 -9.644,10.333 -7.676,0 -11.711,-5.118 -11.711,-11.908 V 0 c 0,-1.575 -0.689,-2.263 -2.264,-2.263 h -8.462 c -1.575,0 -2.264,0.688 -2.264,2.263 v 64.853 c 0,1.575 0.689,2.166 2.264,2.166 h 8.462 c 1.575,0 2.264,-0.591 2.264,-2.166 V 42.711 c 2.165,3.838 7.283,8.07 16.434,8.07 C -5.61,50.781 0,43.498 0,31.492 Z"
           style="fill:#fae600;fill-opacity:1;fill-rule:nonzero;stroke:none"
           id="path1141" /></g><g
         id="g1143"
         transform="translate(242.6394,137.1249)"><path
           d="m 0,0 v -23.915 c 0,-5.61 1.378,-7.381 6.79,-7.381 1.772,0 2.757,0.296 4.134,0.493 1.279,0.098 1.87,-0.591 1.969,-1.969 l 0.59,-5.512 c 0.099,-1.377 -0.59,-1.869 -1.87,-2.263 -1.771,-0.589 -5.118,-1.081 -8.267,-1.081 -11.416,0 -16.14,4.427 -16.14,16.335 V 0 h -5.412 c -1.575,0 -2.361,0.689 -2.361,2.263 v 5.511 c 0,1.574 0.786,2.263 2.361,2.263 h 5.609 v 12.105 c 0,1.477 0.689,2.066 2.264,2.066 h 7.873 c 1.574,0 2.362,-0.589 2.362,-2.066 V 10.037 h 10.923 c 1.575,0 2.264,-0.689 2.264,-2.263 V 2.263 C 13.089,0.689 12.4,0 10.825,0 Z"
           style="fill:#fae600;fill-opacity:1;fill-rule:nonzero;stroke:none"
           id="path1145" /></g><g
         id="g1147"
         transform="translate(276.9857,141.1583)"><path
           d="m 0,0 c 0,-1.378 -0.589,-1.967 -2.066,-1.967 h -7.971 c -1.477,0 -2.068,0.689 -2.363,2.263 -0.394,1.378 -0.591,3.838 -0.591,5.314 0,10.826 7.284,19.978 24.309,19.978 18.896,0 25.586,-9.842 25.586,-21.553 0,-16.041 -18.009,-30.31 -30.114,-37.691 h 28.343 c 1.674,0 2.46,-0.788 2.46,-2.363 v -6.396 c 0,-1.771 -0.786,-2.46 -2.46,-2.46 h -45.958 c -1.575,0 -2.361,0.689 -2.361,2.46 v 5.216 c 0,1.574 0.492,2.165 1.771,2.952 14.466,8.464 34.739,22.733 34.739,37.298 0,6.496 -2.854,11.317 -12.105,11.317 -8.956,0 -11.613,-4.723 -11.613,-9.25 C -0.394,2.757 0,1.28 0,0"
           style="fill:#fae600;fill-opacity:1;fill-rule:nonzero;stroke:none"
           id="path1149" /></g><g
         id="g1151"
         transform="translate(334.2669,121.7714)"><path
           d="m 0,0 h 23.814 v 28.737 z m 26.078,-25.488 c -1.573,0 -2.361,0.689 -2.361,2.46 V -11.12 H -9.744 c -1.574,0 -2.361,0.787 -2.361,2.461 v 6.298 c 0,1.475 0.392,2.164 0.984,2.952 l 34.05,41.825 c 0.69,0.886 1.279,1.378 2.756,1.378 h 9.054 c 1.672,0 2.46,-0.689 2.46,-2.363 V 0 h 8.464 c 1.575,0 2.361,-0.786 2.361,-2.46 v -6.199 c 0,-1.674 -0.786,-2.461 -2.361,-2.461 h -8.464 v -11.908 c 0,-1.771 -0.788,-2.46 -2.363,-2.46 z"
           style="fill:#fae600;fill-opacity:1;fill-rule:nonzero;stroke:none"
           id="path1153" /></g></g></g></svg>
