<?xml version="1.0" encoding="UTF-8" standalone="no"?>
<!-- Generator: Adobe Illustrator 21.0.0, SVG Export Plug-In . SVG Version: 6.00 Build 0)  -->

<svg
   version="1.1"
   id="Layer_1"
   x="0px"
   y="0px"
   viewBox="0 0 1123.2644 175.94727"
   xml:space="preserve"
   width="1123.2644"
   height="175.94727"
   xmlns="http://www.w3.org/2000/svg"
   xmlns:svg="http://www.w3.org/2000/svg"
   xmlns:rdf="http://www.w3.org/1999/02/22-rdf-syntax-ns#"
   xmlns:cc="http://creativecommons.org/ns#"
   xmlns:dc="http://purl.org/dc/elements/1.1/"><metadata
   id="metadata944"><rdf:RDF><cc:Work
       rdf:about=""><dc:format>image/svg+xml</dc:format><dc:type
         rdf:resource="http://purl.org/dc/dcmitype/StillImage" /></cc:Work></rdf:RDF></metadata><defs
   id="defs942">
	
	
</defs>
<style
   type="text/css"
   id="style931">
	.st0{fill:#D51E18;}
</style>
<g
   transform="translate(485.56438,-137.66451)"
   id="g962"><g
     id="g1971"><path
       id="path958"
       d="m 40.72222,0.125 c 19.7,-0.1 39.5,-0.1 59.2,0 -11.8,42.2 -23.4,84.5 -35.2,126.8 -0.7,2.1 -1,4.8 0.8,6.5 3.3,3.2 8.1,2.7 12.3,2.7 4.8,-0.1 10.1,0.5 14.5,-1.9 3.3,-2.5 3.5,-7 4.7,-10.6 11.6,-41.2 22.8,-82.5 34.5,-123.6 19.6,0.1 39.2,0 58.8,0.1 -12.4,46.2 -25.6,92.2 -38.2,138.4 -2.3,7.5 -3.6,15.6 -8.2,22.2 -3.2,4.7 -7.9,8.2 -13.3,9.9 -9.3,3 -19.2,3.3 -28.9,3.6 -22.9,-0.1 -45.9,0.1 -68.8,0 -10.6,-0.4 -22.3,-3.2 -29.1,-12 -4,-4.8 -4.6,-11.6 -3,-17.5 13.2,-48.2 26.7,-96.4 39.9,-144.6"
       style="fill:#d51e18"
       transform="translate(-485.56438,137.66451)" /><path
       id="path956"
       d="m 208.12222,38.225 c 3.9,-12.7 7,-25.6 10.8,-38.2 42.6,0.1 85.1,-0.1 127.7,0.1 -3.2,12.8 -7,25.4 -10.5,38.1 -42.6,0.1 -85.3,0.1 -128,0"
       style="fill:#d51e18"
       transform="translate(-485.56438,137.66451)" /><path
       id="path954"
       d="m 381.02222,4.225 c 11,-4 22.8,-4.2 34.4,-4.2 28.8,0 57.7,-0.1 86.5,0.1 -3.7,12.6 -7,25.4 -10.7,38.1 -21.7,0.2 -43.4,0 -65.1,0.1 -2.7,0.1 -5.6,0.2 -8,1.7 -2.6,2 -3.3,5.3 -4.1,8.3 -7.2,26.4 -14.8,52.8 -21.9,79.2 -2.1,4.8 3.1,8.6 7.4,8.4 23.2,0.2 46.3,-0.1 69.5,0.2 -3.9,12.6 -7,25.5 -10.8,38.2 -30.6,-0.1 -61.2,0 -91.8,0 -9.9,0 -20.4,-1.5 -28.4,-7.8 -6.2,-4.7 -9.7,-13.2 -7.4,-20.8 11.2,-40.4 22.4,-80.9 33.7,-121.3 2.4,-8.7 8,-17.1 16.7,-20.2"
       style="fill:#d51e18"
       transform="translate(-485.56438,137.66451)" /><path
       id="path952"
       d="m 170.62222,174.225 c 9.8,-36.5 20.2,-72.9 30.2,-109.4 42.7,-0.1 85.4,0 128.1,0 -3.8,12.7 -7,25.6 -10.9,38.3 -22.8,-0.2 -45.7,0 -68.6,-0.1 -6.9,23.7 -12.9,47.7 -20.1,71.3 -19.6,-0.2 -39.1,0 -58.7,-0.1"
       style="fill:#d51e18"
       transform="translate(-485.56438,137.66451)" /><path
       style="fill:#d51e18"
       d="m 0,312 c 1.5,-6.4 3.4,-12.7 5.1,-19.1 84.7,-0.1 169.4,0 254.1,0 -1.8,6.4 -3.1,13.1 -5.6,19.3 C 169.1,311.8 84.5,312.1 0,312 Z"
       id="path933" /><path
       id="path935"
       d="m 128.5,208.5 c 9.6,-1.5 19.3,0.4 28.6,2.6 -1.4,4.4 -3.1,8.7 -4.6,13 -7,-1.7 -14.2,-2.7 -21.3,-2.5 -4.8,0.1 -9,3.5 -10.2,8.2 -2.6,8.8 -5.1,17.7 -7.5,26.6 -1.1,3.1 -0.3,7.2 3.3,8.1 4.8,1.1 9.8,0.2 14.6,-0.7 1.1,-3.9 2.2,-7.7 3.3,-11.5 -3.1,0 -6.2,0.1 -9.4,0.1 1.1,-4 2.3,-8 3.2,-12.1 7.8,-0.4 15.7,-0.1 23.5,-0.2 -3.2,11.3 -6,22.7 -9.6,33.9 -9.4,3.8 -19.7,4.8 -29.7,4 -6.2,-0.6 -13.2,-3.6 -14.9,-10.1 -1.6,-7.7 2.2,-14.9 3.8,-22.3 2.4,-7.9 3.9,-16.2 7.2,-23.8 3.4,-7.8 11.5,-12.4 19.7,-13.3 M 507,208.3 c 15.5,-2 31.3,-0.6 46.4,3 -2,6.4 -3.8,12.8 -6,19.1 -9.7,-2.3 -19.7,-3.6 -29.6,-3.6 -3.9,0.2 -8.5,0.3 -11.1,3.6 -2.5,4.2 -3.8,9.1 -3.9,14 0.8,2.8 3.9,3.8 6.4,4.6 9,2.8 19.1,4 26.5,10.4 5.5,4.9 4.4,13 2.9,19.4 -2.7,10.2 -5.7,21.6 -14.8,28.1 -9.4,6.4 -21.4,6.8 -32.4,6.7 -9.8,-0.8 -19.8,-2.7 -28.8,-6.7 2.4,-5.8 4.6,-11.6 6.8,-17.4 11.9,3.8 24.7,6.5 37.2,4.2 6.6,-1.8 8.2,-9.3 9.3,-15.1 0.9,-2.7 -0.9,-5.4 -3.4,-6.4 -9.3,-4.1 -20.5,-4.3 -28.4,-11.4 -5.5,-5 -5,-13.1 -3.6,-19.7 2,-8.2 4.3,-16.5 9.2,-23.5 3.9,-5.8 10.7,-8.4 17.3,-9.3 m 83.7,0 c 15.7,-2.1 31.6,-0.7 47,2.9 -2.1,6.3 -4,12.6 -6,19 -11.8,-2.3 -24,-4.7 -36,-2.8 -4.7,0.6 -6.7,5.5 -7.7,9.5 -1,3.5 -2.6,8.7 1.8,10.6 10,4.3 22,4.5 30.4,12.1 5.6,5.7 3.8,14.3 2,21.1 -2.7,10.7 -6.8,22.7 -17.4,28 -10.8,5.3 -23.4,5.5 -35.1,4.3 -7.9,-1.3 -15.9,-2.7 -23.1,-6.3 2.4,-5.7 4.6,-11.5 6.8,-17.3 12,3.8 24.9,6.8 37.4,4.1 6.4,-1.9 7.9,-9.3 9.1,-14.9 0.9,-2.6 -0.7,-5.3 -3.1,-6.3 -9.5,-4.4 -21.2,-4.4 -29,-12 -4.8,-4.6 -4.8,-12 -3.4,-18.1 1.9,-8.5 4.3,-17.2 9.2,-24.4 3.9,-5.7 10.5,-8.5 17.1,-9.5 M 83.9,209 c 5,0.1 10.1,0.1 15.1,0 -6.5,22.7 -12.5,45.6 -19.1,68.3 -4.9,-0.3 -9.9,-0.2 -14.8,0 6,-22.8 12.5,-45.5 18.8,-68.3 m 90.1,0 c 5,0.1 10,0.1 15,0 -2.5,9.2 -5.1,18.3 -7.6,27.5 7.3,0.1 14.6,-0.1 21.9,0.1 3.1,-9.1 5,-18.6 8.1,-27.7 4.9,0.3 9.9,0.2 14.8,0.1 -6.3,22.7 -12.6,45.5 -18.9,68.2 -5,0.2 -9.9,0.1 -14.9,0.2 2.1,-9.4 5.2,-18.5 7.3,-27.8 -7.3,0.2 -14.7,0 -22,0.1 -2.8,9.2 -4.9,18.6 -7.9,27.7 -4.9,-0.3 -9.9,-0.2 -14.8,-0.1 6.4,-22.8 12.7,-45.6 19,-68.3 m -144.9,0 c 14.5,0 29,0.1 43.5,0 -1.2,4.4 -2.5,8.8 -3.7,13.3 -9.5,-0.1 -18.9,0 -28.4,-0.1 -1.4,5.1 -2.9,10.1 -4.3,15.2 8.8,-0.1 17.6,0 26.4,-0.1 -1.3,4.4 -2.6,8.8 -3.7,13.2 -8.8,-0.1 -17.5,0 -26.2,-0.1 -2.7,8.9 -5,17.9 -7.5,26.9 -5,0.1 -10.1,0.1 -15.1,0.1 6.4,-22.8 12.6,-45.6 19,-68.4 m 201.3,13.2 c 1.4,-4.4 2.5,-8.8 3.8,-13.2 17.4,0.1 34.9,0.1 52.3,0 -1.4,4.4 -2.5,8.9 -3.9,13.3 -6.1,-0.2 -12.3,-0.1 -18.4,-0.1 -5.1,18.3 -10.3,36.6 -15.2,55 -5.1,0.3 -10.2,0.2 -15.3,0.2 5.1,-18.4 10.1,-36.8 15.3,-55.1 -6.1,-0.2 -12.3,-0.1 -18.6,-0.1 m 76.8,-13.1 c 13.7,-0.2 27.4,-0.1 41,-0.1 9.4,0.2 20.6,1.6 26.5,9.9 4.8,7.2 2.6,16.1 0.3,23.7 -3.2,11.7 -6,25.3 -17.2,32.1 -14.4,8.2 -31.6,5.1 -47.4,5.6 -3.1,10.5 -6,21 -8.8,31.5 -7.7,0.1 -15.3,0 -23,0.1 9.7,-34.2 19.1,-68.5 28.6,-102.8 m 17.7,19.9 c -3.6,10.5 -6,21.4 -9.1,32.1 8.4,-0.4 16.9,0.6 25.3,-0.6 8.1,-1.8 9.2,-11.1 11.1,-17.7 1.4,-4.3 2.9,-11.1 -2.7,-13 -8.1,-1.6 -16.4,-0.7 -24.6,-0.8 m 91,-20 c 10.4,0 20.9,0 31.3,0 1.4,34.3 2.8,68.7 4.4,103 -8.1,0.1 -16.2,0 -24.3,0 -0.1,-6.7 -0.1,-13.5 -0.1,-20.2 -11.8,-0.4 -23.6,-0.1 -35.3,-0.2 -4,6.7 -7.6,13.7 -11.7,20.4 -8.2,-0.2 -16.4,-0.1 -24.6,0 20.3,-34.2 40.2,-68.7 60.3,-103 M 402,272.9 c 8.3,0 16.6,-0.1 24.9,0 0.1,-14.9 0.1,-29.8 0.2,-44.7 -8.8,14.6 -16.6,29.9 -25.1,44.7 z"
       style="fill:#ffffff" /></g></g>
</svg>
