<?xml version="1.0" encoding="UTF-8" standalone="no"?>
<svg
   version="1.1"
   x="0px"
   y="0px"
   width="90px"
   height="28.1px"
   viewBox="0 0 90 28.1"
   style="enable-background:new 0 0 90 28.1;"
   xml:space="preserve"
   id="svg923"
   xmlns="http://www.w3.org/2000/svg"
   xmlns:svg="http://www.w3.org/2000/svg"
   xmlns:rdf="http://www.w3.org/1999/02/22-rdf-syntax-ns#"
   xmlns:cc="http://creativecommons.org/ns#"
   xmlns:dc="http://purl.org/dc/elements/1.1/"><metadata
   id="metadata927"><rdf:RDF><cc:Work
       rdf:about=""><dc:format>image/svg+xml</dc:format><dc:type
         rdf:resource="http://purl.org/dc/dcmitype/StillImage" /><dc:title>FITE</dc:title></cc:Work></rdf:RDF></metadata>
<title
   id="title913">FITE</title>
<defs
   id="defs915"> 



</defs>
<path
   class="svg-fitelogo"
   d="M 26.3,11.3 H 14 L 15.4,6.2 C 15.5,5.7 15.9,5.5 16.7,5.5 H 28 L 29.3,0 H 13.2 C 11.9,0 10.7,0.3 9.4,0.8 7.8,1.5 6.9,2.5 6.6,3.8 L 0,28.1 h 9.5 l 3,-11.3 H 24.8 Z M 31.3,0 23.8,28.1 h 9.5 L 40.8,0 Z M 67.1,0 H 41.8 l -1.4,5.5 h 6.9 c 0.6,0 0.9,0.2 0.9,0.6 0,0 0,0.1 0,0.1 l -5.9,21.9 h 9.5 L 57.7,6.2 C 57.8,5.7 58.2,5.5 59,5.5 h 6.9 z M 77.3,5.5 H 88.6 L 90,0 H 73.8 C 72.5,0 71.3,0.3 70,0.8 68.4,1.5 67.5,2.5 67.2,3.7 l -5.5,20.6 c 0,0.1 -0.1,0.3 -0.1,0.4 0,0.1 0,0.3 0,0.4 0,1 0.6,1.8 1.7,2.3 0.9,0.4 1.9,0.7 3,0.7 H 82.5 L 84,22.6 H 72.7 c -0.6,0 -0.9,-0.2 -0.9,-0.6 v -0.1 l 1.4,-5.2 H 85.5 L 87,11.2 H 74.7 l 1.3,-5 c 0.2,-0.5 0.6,-0.7 1.3,-0.7 z"
   id="path917"
   style="fill:#e61414;fill-opacity:1" />
</svg>
