<?xml version="1.0" encoding="UTF-8" standalone="no"?>
<!-- Generator: Adobe Illustrator 25.2.0, SVG Export Plug-In . SVG Version: 6.00 Build 0)  -->

<svg
   version="1.1"
   id="Laag_1"
   x="0px"
   y="0px"
   viewBox="0 0 693.06288 146.0101"
   xml:space="preserve"
   width="693.06287"
   height="146.0101"
   xmlns="http://www.w3.org/2000/svg"
   xmlns:svg="http://www.w3.org/2000/svg"><defs
   id="defs3498">
	

		
		
		
		
		
		
	</defs>
<style
   type="text/css"
   id="style3463">
	.Slagschaduw{fill:none;}
	.Afgeronde_x0020_hoeken_x0020_2_x0020_pt{fill:#FFFFFF;stroke:#000000;stroke-miterlimit:10;}
	.X_x0020_actief_x0020_weerspiegelen{fill:none;}
	.Zachte_x0020_schuine_x0020_kant{fill:url(#SVGID_1_);}
	.Schemering{fill:#FFFFFF;}
	.Gebladerte_AS{fill:#FFDD00;}
	.Pompadoer_AS{fill-rule:evenodd;clip-rule:evenodd;fill:#51AEE2;}
	.st0{fill:#0A0A0B;}
	.st1{fill:#070708;}
	.st2{fill:#0F0F10;}
	.st3{fill:#FFFFFF;}
</style>
<linearGradient
   id="SVGID_1_"
   gradientUnits="userSpaceOnUse"
   x1="130.7059"
   y1="-114.1765"
   x2="131.41299"
   y2="-113.4694">
	<stop
   offset="0"
   style="stop-color:#E6E6EB"
   id="stop3465" />
	<stop
   offset="0.1738"
   style="stop-color:#E2E2E6"
   id="stop3467" />
	<stop
   offset="0.352"
   style="stop-color:#D5D4D8"
   id="stop3469" />
	<stop
   offset="0.5323"
   style="stop-color:#C0BFC2"
   id="stop3471" />
	<stop
   offset="0.7139"
   style="stop-color:#A4A2A4"
   id="stop3473" />
	<stop
   offset="0.8949"
   style="stop-color:#828282"
   id="stop3475" />
	<stop
   offset="1"
   style="stop-color:#6B6E6E"
   id="stop3477" />
</linearGradient>
<g
   id="g3604"><path
     id="path3480"
     class="st0"
     d="m 332.51367,0.00976563 c -4.15,-0.0375 -8.30117,0.03710937 -12.45117,0.28710937 -7.6,0.5 -15.2,1.3003906 -22.5,3.4003906 -14,4 -24.39961,12.2988284 -31.09961,25.2988284 -5.9,11.4 -8.59922,23.600781 -9.19922,36.300781 -0.8,15.8 0.59844,31.399223 6.89844,46.199215 6.7,15.6 17.80078,26.29961 34.30078,31.09961 10.8,3.1 21.99922,3.50039 33.19922,3.40039 10.6,0.1 21.00078,-0.29961 31.30078,-3.09961 12.6,-3.2 22.99922,-9.70078 30.19922,-20.80078 8.5,-13.1 11.50078,-27.998825 12.30078,-43.298825 0.7,-12.6 -0.70039,-25.100781 -4.40039,-37.300781 -4,-13 -11.09961,-23.9 -22.59961,-31.5000002 -10.1,-6.7 -21.6,-8.8996094 -33.5,-9.59960942 -4.15,-0.20000001 -8.29922,-0.34921876 -12.44922,-0.38671875 z M 330.91211,28.958984 c 4.025,-0.0125 8.05078,0.238282 12.05078,0.738282 12.8,1.6 21.09961,8.498437 25.59961,20.398437 2.8,7.6 4.00039,15.500391 3.90039,23.400391 -0.1,9.6 -1.39961,19.100394 -6.09961,27.900386 -4.6,8.6 -11.90117,13.10079 -21.20117,14.80079 -4.5,0.8 -9,1.1996 -13.5,1.09961 -4.9,0.2 -9.79961,-0.30118 -14.59961,-1.20118 -11.6,-2.3 -19.4,-9.29844 -23,-20.398434 -5.4,-16.3 -5.29922,-32.701172 1.30078,-48.701172 4.3,-10.5 12.6,-15.699219 23.5,-17.199219 4,-0.55 8.02383,-0.825391 12.04883,-0.837891 z"
     style="display:inline;fill:#ffffff" /><path
     class="st1"
     d="m 137.46286,5.0966041 c -3.5,5.9999999 -6.7,11.3999999 -9.9,16.8999999 -1.5,2.6 -3.2,5 -4.6,7.7 -0.7,1.4 -1.7,1.8 -3.2,1.7 -15.1,-0.1 -30.299999,-0.1 -45.399999,0 -7.9,0.1 -15.6,1.2 -22.5,5.4 -9.4,5.6 -14.5,14 -16.5,24.6 -1.8,10 -1.9,19.9 1.2,29.7 4.4,13.999996 15.4,21.599996 29.2,23.199996 11.4,1.3 22.8,0.8 34.2,0.9 1.999999,0 2.199999,-0.7 2.099999,-2.4 -0.1,-8.2 -0.1,-16.399996 0,-24.699996 0,-1.9 -0.5,-2.4 -2.399999,-2.4 -11.3,0.1 -22.7,0 -34,0.1 -2.3,0 -2.9,-0.5 -2.9,-2.9 0.2,-6.9 0.1,-13.7 0,-20.6 0,-1.9 0.5,-2.5 2.4,-2.5 22.3,0.1 44.599999,0.1 66.899999,0 1.9,0 2.2,0.7 2.2,2.4 0,25.4 -0.1,50.899996 0,76.299996 0,2 -0.6,2.4 -2.5,2.4 -23.9,-0.1 -47.699999,0.2 -71.599999,-0.1 -11.7,-0.2 -23.2,-2 -33.5,-8.2 -11.6,-7 -18.5,-17.5 -22.5,-30.1 -2.4,-7.499996 -3.5,-15.299996 -4,-23.199996 -0.7,-13.9 0.8,-27.3 5.6,-40.3 7.1,-19.4 21.4,-29.6999999 41.5,-32.5999999 8,-1.2 16,-1.3 24,-1.3 20.8,0 41.499999,0 62.299999,0 1,0 2,0 3.9,0 z"
     id="path3482"
     style="display:inline;fill:#ffffff" /><path
     class="st2"
     d="m 511.26286,89.196604 c 12.8,17.399996 25.2,34.199996 37.6,51.199996 -1.1,0.8 -2.1,0.5 -3,0.5 -10.4,0 -20.8,0 -31.1,0.1 -2.1,0 -3.4,-0.5 -4.8,-2.3 -16.9,-23.7 -34,-47.299996 -51,-70.899996 -0.4,-0.6 -1.3,-1.2 -0.8,-2 0.5,-0.7 1.4,-0.3 2.2,-0.3 11.6,0 23.3,0.1 34.9,-0.1 4.3,-0.1 8.6,-0.4 12.8,-1.7 6.7,-2.1 10.6,-6.6 11.5,-13.4 0.8,-6.2 0.3,-12.3 -5.2,-16.5 -3.6,-2.8 -8,-4 -12.4,-4.3 -15.4,-1.2 -30.8,-0.3 -46.2,-0.5 -1.2,0 -1.8,0.4 -1.7,1.7 0.1,0.7 0,1.4 0,2 0,35 0,69.999996 0.1,104.999996 0,3.1 -0.9,3.6 -3.7,3.5 -8.8,-0.2 -17.7,-0.1 -26.5,0 -2,0 -2.6,-0.4 -2.6,-2.5 0.1,-43.599996 0.1,-87.199996 0,-130.8999959 0,-1.9 0.4,-2.5 2.4,-2.5 29.4,0.1 58.8,-0.1 88.2,0.1 9.4,0.1 18.3,2 26,7.8999999 9.4,7.2 13.9,17 15.2,28.5 0.8,6.8 0.6,13.6 -0.8,20.4 -2.6,12.6 -10.5,20.1 -22.3,24.3 -5.8,1.8 -11.8,2.6 -18.8,2.7 z"
     id="path3484"
     style="fill:#ffffff" /><path
     class="st0"
     d="m 552.86286,5.0966041 c 7.2,0 13.9,0 20.5,0 4.7,0 9.3,0 14,0 1.5,0 2.4,0.4 3.4,1.7 10.4,13.8999999 20.8,27.6999999 31.3,41.4999999 0.5,0.7 1.1,1.4 1.8,2.3 3.7,-5.4 7.2,-10.6 10.8,-15.8 6.5,-9.4 13,-18.7 19.4,-27.9999999 0.5,-0.8 0.9,-1.6 2.2,-1.6 12,0 24,0 36.8,0 -2.7,3.9 -5,7.2999999 -7.4,10.6999999 -9.2,13 -18.4,25.9 -27.6,38.9 -5.6,7.9 -11.1,15.8 -16.7,23.6 -1,1.4 -1.3,2.7 -1.3,4.3 0,18.399996 0,36.799996 0.1,55.099996 0,2.5 -0.5,3.3 -3.2,3.2 -8.8,-0.2 -17.7,-0.2 -26.5,0 -2.4,0 -3.1,-0.5 -3.1,-3 0.1,-17.7 0,-35.4 0.1,-53.099996 0,-3.1 -0.9,-5.5 -2.6,-7.9 -17.1,-23.3 -34.1,-46.7 -51.1,-69.9999999 -0.2,-0.5 -0.3,-0.9 -0.9,-1.9 z"
     id="path3486"
     style="fill:#ffffff" /><path
     class="st2"
     d="m 255.36286,117.3966 c -4.7,7.8 -9.1,15.1 -13.5,22.4 -0.8,1.3 -2.2,1.1 -3.4,1.1 -23.1,0 -46.2,0 -69.3,0 -3,0 -6,-0.1 -9,0 -2.1,0.1 -2.6,-0.5 -2.5,-2.5 0.1,-13.1 0,-26.1 0,-39.199996 0,-30.4 0,-60.7 -0.1,-91.0999999 0,-2.3 0.4,-3.1 2.9,-3 8.6,0.2 17.3,0.2 25.9,0 2.5,0 3.4,0.4 3.4,3.2 -0.1,35.2999999 0,70.5999999 -0.1,105.8999959 0,2.5 0.6,3.2 3.1,3.2 20.1,-0.1 40.2,-0.1 60.2,-0.1 0.7,0 1.2,0 2.4,0.1 z"
     id="path3488"
     style="fill:#ffffff" /></g>
</svg>
