<?xml version="1.0" encoding="UTF-8" standalone="no"?>
<!-- Generator: Adobe Illustrator 25.2.0, SVG Export Plug-In . SVG Version: 6.00 Build 0)  -->

<svg
   version="1.1"
   id="Laag_1"
   x="0px"
   y="0px"
   viewBox="0 0 693.06288 146.0101"
   xml:space="preserve"
   width="693.06287"
   height="146.0101"
   xmlns="http://www.w3.org/2000/svg"
   xmlns:svg="http://www.w3.org/2000/svg"><defs
   id="defs3498">
	

		
		
		
		
		
		
	</defs>
<style
   type="text/css"
   id="style3463">
	.Slagschaduw{fill:none;}
	.Afgeronde_x0020_hoeken_x0020_2_x0020_pt{fill:#FFFFFF;stroke:#000000;stroke-miterlimit:10;}
	.X_x0020_actief_x0020_weerspiegelen{fill:none;}
	.Zachte_x0020_schuine_x0020_kant{fill:url(#SVGID_1_);}
	.Schemering{fill:#FFFFFF;}
	.Gebladerte_AS{fill:#FFDD00;}
	.Pompadoer_AS{fill-rule:evenodd;clip-rule:evenodd;fill:#51AEE2;}
	.st0{fill:#0A0A0B;}
	.st1{fill:#070708;}
	.st2{fill:#0F0F10;}
	.st3{fill:#FFFFFF;}
</style>
<linearGradient
   id="SVGID_1_"
   gradientUnits="userSpaceOnUse"
   x1="130.7059"
   y1="-114.1765"
   x2="131.41299"
   y2="-113.4694">
	<stop
   offset="0"
   style="stop-color:#E6E6EB"
   id="stop3465" />
	<stop
   offset="0.1738"
   style="stop-color:#E2E2E6"
   id="stop3467" />
	<stop
   offset="0.352"
   style="stop-color:#D5D4D8"
   id="stop3469" />
	<stop
   offset="0.5323"
   style="stop-color:#C0BFC2"
   id="stop3471" />
	<stop
   offset="0.7139"
   style="stop-color:#A4A2A4"
   id="stop3473" />
	<stop
   offset="0.8949"
   style="stop-color:#828282"
   id="stop3475" />
	<stop
   offset="1"
   style="stop-color:#6B6E6E"
   id="stop3477" />
</linearGradient>
<g
   id="g3576"
   transform="translate(-10.037139,-9.2033959)"><path
     class="st0"
     d="m 341.7,155.2 c -11.2,0.1 -22.4,-0.3 -33.2,-3.4 -16.5,-4.8 -27.6,-15.5 -34.3,-31.1 -6.3,-14.8 -7.7,-30.4 -6.9,-46.2 0.6,-12.7 3.3,-24.9 9.2,-36.3 6.7,-13 17.1,-21.3 31.1,-25.3 7.3,-2.1 14.9,-2.9 22.5,-3.4 8.3,-0.5 16.6,-0.3 24.9,0.1 11.9,0.7 23.4,2.9 33.5,9.6 11.5,7.6 18.6,18.5 22.6,31.5 3.7,12.2 5.1,24.7 4.4,37.3 -0.8,15.3 -3.8,30.2 -12.3,43.3 -7.2,11.1 -17.6,17.6 -30.2,20.8 -10.3,2.8 -20.7,3.2 -31.3,3.1 z"
     id="path3480" /><path
     class="st1"
     d="m 147.5,14.3 c -3.5,6 -6.7,11.4 -9.9,16.9 -1.5,2.6 -3.2,5 -4.6,7.7 -0.7,1.4 -1.7,1.8 -3.2,1.7 -15.1,-0.1 -30.3,-0.1 -45.4,0 -7.9,0.1 -15.6,1.2 -22.5,5.4 -9.4,5.6 -14.5,14 -16.5,24.6 -1.8,10 -1.9,19.9 1.2,29.7 4.4,14 15.4,21.6 29.2,23.2 11.4,1.3 22.8,0.8 34.2,0.9 2,0 2.2,-0.7 2.1,-2.4 -0.1,-8.2 -0.1,-16.4 0,-24.7 0,-1.9 -0.5,-2.4 -2.4,-2.4 -11.3,0.1 -22.7,0 -34,0.1 -2.3,0 -2.9,-0.5 -2.9,-2.9 0.2,-6.9 0.1,-13.7 0,-20.6 0,-1.9 0.5,-2.5 2.4,-2.5 22.3,0.1 44.6,0.1 66.9,0 1.9,0 2.2,0.7 2.2,2.4 0,25.4 -0.1,50.9 0,76.3 0,2 -0.6,2.4 -2.5,2.4 C 117.9,150 94.1,150.3 70.2,150 58.5,149.8 47,148 36.7,141.8 25.1,134.8 18.2,124.3 14.2,111.7 11.8,104.2 10.7,96.4 10.2,88.5 9.5,74.6 11,61.2 15.8,48.2 22.9,28.8 37.2,18.5 57.3,15.6 c 8,-1.2 16,-1.3 24,-1.3 20.8,0 41.5,0 62.3,0 1,0 2,0 3.9,0 z"
     id="path3482" /><path
     class="st2"
     d="m 521.3,98.4 c 12.8,17.4 25.2,34.2 37.6,51.2 -1.1,0.8 -2.1,0.5 -3,0.5 -10.4,0 -20.8,0 -31.1,0.1 -2.1,0 -3.4,-0.5 -4.8,-2.3 -16.9,-23.7 -34,-47.3 -51,-70.9 -0.4,-0.6 -1.3,-1.2 -0.8,-2 0.5,-0.7 1.4,-0.3 2.2,-0.3 11.6,0 23.3,0.1 34.9,-0.1 4.3,-0.1 8.6,-0.4 12.8,-1.7 6.7,-2.1 10.6,-6.6 11.5,-13.4 0.8,-6.2 0.3,-12.3 -5.2,-16.5 -3.6,-2.8 -8,-4 -12.4,-4.3 -15.4,-1.2 -30.8,-0.3 -46.2,-0.5 -1.2,0 -1.8,0.4 -1.7,1.7 0.1,0.7 0,1.4 0,2 0,35 0,70 0.1,105 0,3.1 -0.9,3.6 -3.7,3.5 -8.8,-0.2 -17.7,-0.1 -26.5,0 -2,0 -2.6,-0.4 -2.6,-2.5 0.1,-43.6 0.1,-87.2 0,-130.9 0,-1.9 0.4,-2.5 2.4,-2.5 29.4,0.1 58.8,-0.1 88.2,0.1 9.4,0.1 18.3,2 26,7.9 9.4,7.2 13.9,17 15.2,28.5 0.8,6.8 0.6,13.6 -0.8,20.4 -2.6,12.6 -10.5,20.1 -22.3,24.3 -5.8,1.8 -11.8,2.6 -18.8,2.7 z"
     id="path3484" /><path
     class="st0"
     d="m 562.9,14.3 c 7.2,0 13.9,0 20.5,0 4.7,0 9.3,0 14,0 1.5,0 2.4,0.4 3.4,1.7 10.4,13.9 20.8,27.7 31.3,41.5 0.5,0.7 1.1,1.4 1.8,2.3 3.7,-5.4 7.2,-10.6 10.8,-15.8 6.5,-9.4 13,-18.7 19.4,-28 0.5,-0.8 0.9,-1.6 2.2,-1.6 12,0 24,0 36.8,0 -2.7,3.9 -5,7.3 -7.4,10.7 -9.2,13 -18.4,25.9 -27.6,38.9 -5.6,7.9 -11.1,15.8 -16.7,23.6 -1,1.4 -1.3,2.7 -1.3,4.3 0,18.4 0,36.8 0.1,55.1 0,2.5 -0.5,3.3 -3.2,3.2 -8.8,-0.2 -17.7,-0.2 -26.5,0 -2.4,0 -3.1,-0.5 -3.1,-3 0.1,-17.7 0,-35.4 0.1,-53.1 0,-3.1 -0.9,-5.5 -2.6,-7.9 -17.1,-23.3 -34.1,-46.7 -51.1,-70 -0.2,-0.5 -0.3,-0.9 -0.9,-1.9 z"
     id="path3486" /><path
     class="st2"
     d="m 265.4,126.6 c -4.7,7.8 -9.1,15.1 -13.5,22.4 -0.8,1.3 -2.2,1.1 -3.4,1.1 -23.1,0 -46.2,0 -69.3,0 -3,0 -6,-0.1 -9,0 -2.1,0.1 -2.6,-0.5 -2.5,-2.5 0.1,-13.1 0,-26.1 0,-39.2 0,-30.4 0,-60.7 -0.1,-91.1 0,-2.3 0.4,-3.1 2.9,-3 8.6,0.2 17.3,0.2 25.9,0 2.5,0 3.4,0.4 3.4,3.2 -0.1,35.3 0,70.6 -0.1,105.9 0,2.5 0.6,3.2 3.1,3.2 20.1,-0.1 40.2,-0.1 60.2,-0.1 0.7,0 1.2,0 2.4,0.1 z"
     id="path3488" /><path
     class="st3"
     d="m 341.7,126.5 c -4.9,0.2 -9.8,-0.3 -14.6,-1.2 -11.6,-2.3 -19.4,-9.3 -23,-20.4 -5.4,-16.3 -5.3,-32.7 1.3,-48.7 4.3,-10.5 12.6,-15.7 23.5,-17.2 8,-1.1 16.1,-1.1 24.1,-0.1 12.8,1.6 21.1,8.5 25.6,20.4 2.8,7.6 4,15.5 3.9,23.4 -0.1,9.6 -1.4,19.1 -6.1,27.9 -4.6,8.6 -11.9,13.1 -21.2,14.8 -4.5,0.8 -9,1.2 -13.5,1.1 z"
     id="path3490" /></g>
</svg>
