<?xml version="1.0" encoding="UTF-8" standalone="no"?>
<svg
   id="Ebene_1"
   data-name="Ebene 1"
   viewBox="0 0 945.66956 275.94308"
   version="1.1"
   width="945.66956"
   height="275.94308"
   xmlns="http://www.w3.org/2000/svg"
   xmlns:svg="http://www.w3.org/2000/svg"
   xmlns:rdf="http://www.w3.org/1999/02/22-rdf-syntax-ns#"
   xmlns:cc="http://creativecommons.org/ns#"
   xmlns:dc="http://purl.org/dc/elements/1.1/">
  <metadata
     id="metadata997">
    <rdf:RDF>
      <cc:Work
         rdf:about="">
        <dc:format>image/svg+xml</dc:format>
        <dc:type
           rdf:resource="http://purl.org/dc/dcmitype/StillImage" />
      </cc:Work>
    </rdf:RDF>
  </metadata>
  <defs
     id="defs944">
    <style
       id="style942">.cls-1{fill:#fff;}</style>
  </defs>
  <g
     id="g984">
    <path
       class="cls-1"
       d="m 945.66955,1.3730833 c -1.31,3.73 -2.66,7.45 -3.91,11.1999997 q -11.38,34.16 -22.68,68.35 a 2.26,2.26 0 0 1 -2.6,1.9 q -85.42,-0.06 -170.85,-0.07 a 2.2,2.2 0 0 0 -2.52,1.8 q -9.44,29.059997 -19,58.069997 -8,24.45 -16,48.9 c -0.13,0.4 -0.21,0.82 -0.35,1.4 h 174.52 c -1,3.13 -2,6.06 -3,9 q -12,36.27 -24.07,72.55 a 1.68,1.68 0 0 1 -1.93,1.38 q -97.59,0 -195.19,-0.11 c -11.7,0 -22.44,-3.55 -31.14,-11.84 a 42.06,42.06 0 0 1 -12.84,-25 c -1.6,-10.91 0.53,-21.35 3.91,-31.67 q 16.88,-51.37 33.65,-102.78 c 4.28,-13.089997 8.66,-26.149997 12.81,-39.289997 5.74,-18.17 16.69,-32.58 31.62,-44.18 10.11,-7.87 21.14,-14.0999997 33.57,-17.7199997 a 76.82,76.82 0 0 1 21.64,-3.20999999 q 97.18,0 194.36,0 z"
       id="path946"
       style="fill:#000000;fill-opacity:1" />
    <path
       class="cls-1"
       d="m 523.41955,161.66308 -105.45,114.28 c -10.15,-38.41 -20.2,-76.41 -30.3,-114.49 h -0.37 c -1,3 -2,6 -3,9 q -12.42,37.79 -24.82,75.56 c -3.11,9.46 -6.25,18.91 -9.33,28.39 a 1.68,1.68 0 0 1 -1.91,1.44 q -40.86,-0.06 -81.72,0 c -0.43,0 -0.86,0 -1.47,-0.07 0.89,-2.74 1.73,-5.37 2.6,-8 q 16,-48.72 32,-97.44 18.53,-56.4 37,-112.819997 9.14,-27.85 18.25,-55.7199997 a 2.07,2.07 0 0 1 2.42,-1.75999999 q 40.86,0.06 81.73,0 h 1.72 c 10.13,38.25999969 20.27,76.52999969 30.49,115.09999669 2.11,-2.26 4.07,-4.35 6,-6.46 l 74.51,-80.779997 q 12.35,-13.36 24.7,-26.7499997 a 3.17,3.17 0 0 1 2,-0.99999999 q 41.59,-0.07 83.2,0 c 0.22,0 0.43,0 0.89,0.06 -0.35,1.12999999 -0.66,2.19999999 -1,3.23999999 l -24.79,74.9999997 q -21.92,66.209997 -43.82,132.419997 -10.51,31.78 -21,63.58 c -0.31,0.92 -0.66,1.4 -1.79,1.4 q -41.28,-0.06 -82.55,0 c -0.32,0 -0.65,0 -1.22,-0.06 q 18.75,-57 37.43,-113.84 z"
       id="path956"
       style="fill:#000000;fill-opacity:1" />
    <path
       class="cls-1"
       d="m 332.29955,0.06308331 c -2.36,7.08999999 -4.65,13.99999969 -6.93,20.81999969 q -10,30.07 -19.94,60.16 a 2.16,2.16 0 0 1 -2.51,1.78 q -85.26,-0.06 -170.53,-0.08 c -1.8,0 -2.5,0.56 -3,2.23 q -17.33,53.189997 -34.770001,106.339997 c -0.15,0.46 -0.25,0.93 -0.43,1.62 h 1.85 q 42.830001,0 85.670001,0 a 2.08,2.08 0 0 0 2.37,-1.73 c 2.07,-6.25 4.26,-12.47 6.4,-18.7 0.21,-0.61 0.36,-1.24 0.59,-2.07 h -37.85 c 0.79,-2.49 1.5,-4.76 2.23,-7 q 9.16,-28.11 18.3,-56.22 a 1.89,1.89 0 0 1 2.19,-1.54 q 59.7,0 119.39,0 h 1.87 c -0.41,1.31 -0.75,2.44 -1.11,3.56 q -16.95,51.6 -33.9,103.2 c -4.87,14.77 -13.61,27 -25.18,37.31 -10.59,9.43 -22.37,16.95 -35.86,21.62 a 78,78 0 0 1 -25.74,4.4 c -43.63,0 -87.260001,0.11 -130.900001,-0.1 -12.62,-0.06 -24,-4.06 -32.87,-13.56 a 42.8,42.8 0 0 1 -11.56,-27.57 c -0.57,-10.44 2,-20.28 5.25,-30.07 q 16.89,-51.36 33.59,-102.77 c 4.31,-13.199997 8.5,-26.439997 13,-39.579997 5.15,-15.11 14.38,-27.48 26.48,-37.79 a 104.79,104.79 0 0 1 33.900001,-19.8499997 77.79,77.79 0 0 1 25.56,-4.41999999 q 96.12,0 192.24,0 z"
       id="path958"
       style="fill:#000000;fill-opacity:1" />
  </g>
</svg>
