<?xml version="1.0" encoding="UTF-8" standalone="no"?>
<svg
   version="1.1"
   id="Layer_1"
   x="0px"
   y="0px"
   viewBox="0 0 798.3 128.4"
   style="enable-background:new 0 0 798.3 128.4;"
   xml:space="preserve"
   xmlns="http://www.w3.org/2000/svg"
   xmlns:svg="http://www.w3.org/2000/svg"
   xmlns:rdf="http://www.w3.org/1999/02/22-rdf-syntax-ns#"
   xmlns:cc="http://creativecommons.org/ns#"
   xmlns:dc="http://purl.org/dc/elements/1.1/"><metadata
   id="metadata921"><rdf:RDF><cc:Work
       rdf:about=""><dc:format>image/svg+xml</dc:format><dc:type
         rdf:resource="http://purl.org/dc/dcmitype/StillImage" /></cc:Work></rdf:RDF></metadata><defs
   id="defs919">
	
	
	
	
	
</defs>
<style
   type="text/css"
   id="style902">
	.st0{fill:#FFFFFF;}
</style>
<g
   id="g933"><polygon
     class="st0"
     points="133,129.3 187.4,129.3 210.2,56.2 210.2,129.3 261.7,129.3 261.7,0 178.2,0 160.2,57.7 142.1,0 58.4,0 58.4,129.3 110.1,129.3 110.1,56.2 "
     id="polygon904"
     style="fill:#000000;fill-opacity:1" /><polygon
     class="st0"
     points="345.1,129.3 399.5,129.3 422.4,56.2 422.4,129.3 473.8,129.3 473.8,0 390.3,0 372.3,57.7 354.2,0 270.5,0 270.5,129.3 322.2,129.3 322.2,56.2 "
     id="polygon906"
     style="fill:#000000;fill-opacity:1" /><rect
     x="0"
     y="0.2"
     class="st0"
     width="49.599998"
     height="129.3"
     id="rect908"
     style="fill:#000000;fill-opacity:1" /><polygon
     class="st0"
     points="702.3,129.3 702.3,80.1 780.8,80.1 780.8,47.3 702.3,47.3 702.3,32.8 799.6,32.8 799.6,0 702.3,0 701.8,0 652.7,0 652.7,129.3 "
     id="polygon910"
     style="fill:#000000;fill-opacity:1" /><path
     class="st0"
     d="M 573.3,0 H 549.4 531 l -51,129.3 h 49.6 l 4.2,-12.1 h 55.1 l 4,12.1 h 53.3 L 595.3,0 Z m -28.5,80.3 16.6,-46.6 16.2,46.6 z"
     id="path912"
     style="fill:#000000;fill-opacity:1" /></g>
</svg>
