<?xml version="1.0" encoding="UTF-8" standalone="no"?>
<svg
   id="Layer_1"
   data-name="Layer 1"
   viewBox="0 0 1148 164.6"
   version="1.1"
   xmlns="http://www.w3.org/2000/svg"
   xmlns:svg="http://www.w3.org/2000/svg"
   xmlns:rdf="http://www.w3.org/1999/02/22-rdf-syntax-ns#"
   xmlns:cc="http://creativecommons.org/ns#"
   xmlns:dc="http://purl.org/dc/elements/1.1/">
  <defs
     id="defs903">
    <style
       id="style901">.cls-1{fill:#fff;}.cls-2{fill:#fdd405;}</style>
  </defs>
  <title
     id="title905">OKT_TV</title>
  <g
     id="g1415">
    <path
       class="cls-1"
       d="m 819.8,0 h -66.7 l -48.9,49 v 66.6 l 48.9,49 h 66.7 l 49,-49 V 49 Z M 848.5,108.3 810.8,146 H 759.5 L 721.8,108.3 V 57 l 37.7,-37.7 h 51.3 L 848.5,57 Z"
       id="path907"
       style="fill:#ffffff" />
    <path
       class="cls-1"
       d="M 759.5,19.3 721.8,57 v 51.3 l 37.7,37.7 h 51.3 l 37.7,-37.7 V 57 L 810.8,19.3 Z M 731.8,89.8 841.4,68.7 v 36.7 L 807.9,139 h -45.5 l -27.5,-27.6 68.2,-20.2 v 11.5 l 36,-26.4 -110.3,20.9 V 60 l 33.6,-33.6 h 45.5 L 835.4,53.9 767.3,75 V 63.4 Z"
       id="path909"
       style="fill:#ffffff" />
    <path
       class="cls-1"
       d="m 107.1,10.9 a 82.5,82.5 0 0 1 25.2,15.1 71.3,71.3 0 0 1 17.2,23.2 66.7,66.7 0 0 1 6.3,28.9 82.1,82.1 0 0 1 -5.8,31.2 72.2,72.2 0 0 1 -16.2,24.7 73.7,73.7 0 0 1 -24.9,16.1 83.3,83.3 0 0 1 -31,5.7 83.3,83.3 0 0 1 -31,-5.7 A 72.5,72.5 0 0 1 22,133.9 75.7,75.7 0 0 1 5.8,109.2 81.6,81.6 0 0 1 0,78.1 66.7,66.7 0 0 1 6.3,49.2 71.3,71.3 0 0 1 23.5,26 82.8,82.8 0 0 1 107.1,10.9 Z M 62.7,44.1 a 40.3,40.3 0 0 0 -12.8,8.3 37.7,37.7 0 0 0 -8.7,12 32.4,32.4 0 0 0 -3.1,13.9 43.4,43.4 0 0 0 3.1,16.6 41.6,41.6 0 0 0 8.6,13.4 39,39 0 0 0 43.4,8.9 37.9,37.9 0 0 0 12.8,-8.9 40,40 0 0 0 8.6,-13.4 43.4,43.4 0 0 0 3.1,-16.6 33.1,33.1 0 0 0 -3.1,-14 37.4,37.4 0 0 0 -8.6,-12 40.7,40.7 0 0 0 -12.8,-8.2 39.4,39.4 0 0 0 -15.3,-3 38.9,38.9 0 0 0 -15.2,3 z"
       id="path911"
       style="fill:#ffffff" />
    <path
       class="cls-1"
       d="m 254.1,10.2 h 45.4 l -56.1,66.7 61.1,74.2 H 257.1 L 209.8,90 h -0.4 v 61.1 H 172.8 V 10.2 h 36.6 v 58.1 h 0.4 z"
       id="path913"
       style="fill:#ffffff" />
    <path
       class="cls-1"
       d="M 377.5,151.1 H 340.9 V 41.3 H 310.6 V 10.2 h 97.2 v 31.1 h -30.3 z"
       id="path915"
       style="fill:#ffffff" />
    <path
       class="cls-1"
       d="M 445.7,126.6 436,151.1 H 397.1 L 451.3,10.2 h 40 l 53,140.9 h -39 l -9.2,-24.5 z m 25.6,-72.8 h -0.4 l -15.1,44.8 h 30.4 z"
       id="path917"
       style="fill:#ffffff" />
    <path
       class="cls-1"
       d="m 689.2,72.5 c -0.3,12.2 -1.3,22.5 -3.1,31 a 65.7,65.7 0 0 1 -11.3,24.6 62.4,62.4 0 0 1 -25.1,20.9 78.9,78.9 0 0 1 -33,6.8 84.6,84.6 0 0 1 -30.3,-5.3 70,70 0 0 1 -23.9,-15.3 66.9,66.9 0 0 1 -15.5,-23.6 81.9,81.9 0 0 1 -5.4,-30.2 83.8,83.8 0 0 1 5.5,-31 67.6,67.6 0 0 1 40,-39.5 87.9,87.9 0 0 1 30.9,-5.3 c 14.7,0 27.5,3.3 38.3,9.9 10.8,6.6 19.2,16.4 25.2,29.5 L 646.8,59.6 A 37,37 0 0 0 635,43.1 a 29.9,29.9 0 0 0 -18.7,-6 32,32 0 0 0 -15.5,3.8 34.4,34.4 0 0 0 -11.6,10.2 48.4,48.4 0 0 0 -7.1,14.4 54.6,54.6 0 0 0 -2.4,16.1 55.8,55.8 0 0 0 2.4,16.2 45.8,45.8 0 0 0 7.2,14.3 35.6,35.6 0 0 0 11.8,10 34,34 0 0 0 15.8,3.6 c 8.2,0 15,-2.1 20.3,-6.4 5.3,-4.3 8.4,-10.2 9.2,-18.1 H 616.5 V 72.5 Z"
       id="path919"
       style="fill:#ffffff" />
    <path
       class="cls-1"
       d="m 882.2,10.2 h 36.7 l 67,86.2 h 0.4 V 10.2 h 36.6 V 151.1 H 986.3 L 919.2,64.8 h -0.3 v 86.3 h -36.7 z"
       id="path921"
       style="fill:#ffffff" />
    <path
       class="cls-2"
       d="m 1056.3,143.4 a 8.3,8.3 0 0 1 -2.6,6 8.4,8.4 0 0 1 -6.2,2.5 8.8,8.8 0 0 1 -6.3,-2.5 8.5,8.5 0 0 1 -2.5,-6.3 8.2,8.2 0 0 1 2.5,-6.1 8.5,8.5 0 0 1 6.2,-2.6 8.8,8.8 0 0 1 6.3,2.6 9,9 0 0 1 2.6,6.4 z"
       id="path923" />
    <path
       class="cls-2"
       d="m 1087.3,151.1 h -15.6 V 107 H 1063 V 93.1 h 33.3 V 107 h -9 z"
       id="path925" />
    <path
       class="cls-2"
       d="m 1132.2,151.1 h -16 l -13.3,-58 h 16.5 l 2.8,16.6 c 1.1,6.3 2,13.4 2.6,21.2 0.3,-3.4 0.6,-6.7 1,-9.7 0.4,-3 0.9,-6 1.5,-8.9 l 3.7,-19.2 h 17 z"
       id="path927" />
  </g>
  <metadata
     id="metadata1012">
    <rdf:RDF>
      <cc:Work
         rdf:about="">
        <dc:title>OKT_TV</dc:title>
      </cc:Work>
    </rdf:RDF>
  </metadata>
</svg>
