<?xml version="1.0" encoding="UTF-8" standalone="no"?>
<svg
   id="Layer_1"
   data-name="Layer 1"
   viewBox="0 0 1148 164.6"
   version="1.1"
   xmlns="http://www.w3.org/2000/svg"
   xmlns:svg="http://www.w3.org/2000/svg"
   xmlns:rdf="http://www.w3.org/1999/02/22-rdf-syntax-ns#"
   xmlns:cc="http://creativecommons.org/ns#"
   xmlns:dc="http://purl.org/dc/elements/1.1/">
  <defs
     id="defs903">
    <style
       id="style901">.cls-1{fill:#fff;}.cls-2{fill:#fdd405;}</style>
  </defs>
  <title
     id="title905">OKT_TV</title>
  <g
     id="g1306">
    <path
       class="cls-1"
       d="m 840.8,338.7 h -66.7 l -48.9,49 v 66.6 l 48.9,49 h 66.7 l 49,-49 V 387.7 Z M 869.5,447 831.8,484.7 H 780.5 L 742.8,447 V 395.7 L 780.5,358 h 51.3 l 37.7,37.7 z"
       transform="translate(-21,-338.7)"
       id="path907"
       style="fill:#000000" />
    <path
       class="cls-1"
       d="m 780.5,358 -37.7,37.7 V 447 l 37.7,37.7 h 51.3 L 869.5,447 V 395.7 L 831.8,358 Z m -27.7,70.5 109.6,-21.1 v 36.7 l -33.5,33.6 h -45.5 l -27.5,-27.6 68.2,-20.2 v 11.5 l 36,-26.4 -110.3,20.9 v -37.2 l 33.6,-33.6 h 45.5 l 27.5,27.5 -68.1,21.1 v -11.6 z"
       transform="translate(-21,-338.7)"
       id="path909"
       style="fill:#000000" />
    <path
       class="cls-1"
       d="m 128.1,349.6 a 82.5,82.5 0 0 1 25.2,15.1 71.3,71.3 0 0 1 17.2,23.2 66.7,66.7 0 0 1 6.3,28.9 82.1,82.1 0 0 1 -5.8,31.2 72.2,72.2 0 0 1 -16.2,24.7 73.7,73.7 0 0 1 -24.9,16.1 83.3,83.3 0 0 1 -31,5.7 83.3,83.3 0 0 1 -31,-5.7 A 72.5,72.5 0 0 1 43,472.6 75.7,75.7 0 0 1 26.8,447.9 81.6,81.6 0 0 1 21,416.8 a 66.7,66.7 0 0 1 6.3,-28.9 71.3,71.3 0 0 1 17.2,-23.2 82.8,82.8 0 0 1 83.6,-15.1 z m -44.4,33.2 a 40.3,40.3 0 0 0 -12.8,8.3 37.7,37.7 0 0 0 -8.7,12 32.4,32.4 0 0 0 -3.1,13.9 43.4,43.4 0 0 0 3.1,16.6 41.6,41.6 0 0 0 8.6,13.4 39,39 0 0 0 43.4,8.9 37.9,37.9 0 0 0 12.8,-8.9 40,40 0 0 0 8.6,-13.4 43.4,43.4 0 0 0 3.1,-16.6 33.1,33.1 0 0 0 -3.1,-14 37.4,37.4 0 0 0 -8.6,-12 40.7,40.7 0 0 0 -12.8,-8.2 39.4,39.4 0 0 0 -15.3,-3 38.9,38.9 0 0 0 -15.2,3 z"
       transform="translate(-21,-338.7)"
       id="path911"
       style="fill:#000000" />
    <path
       class="cls-1"
       d="m 275.1,348.9 h 45.4 l -56.1,66.7 61.1,74.2 h -47.4 l -47.3,-61.1 h -0.4 v 61.1 H 193.8 V 348.9 h 36.6 V 407 h 0.4 z"
       transform="translate(-21,-338.7)"
       id="path913"
       style="fill:#000000" />
    <path
       class="cls-1"
       d="M 398.5,489.8 H 361.9 V 380 h -30.3 v -31.1 h 97.2 V 380 h -30.3 z"
       transform="translate(-21,-338.7)"
       id="path915"
       style="fill:#000000" />
    <path
       class="cls-1"
       d="m 466.7,465.3 -9.7,24.5 h -38.9 l 54.2,-140.9 h 40 l 53,140.9 h -39 l -9.2,-24.5 z m 25.6,-72.8 h -0.4 l -15.1,44.8 h 30.4 z"
       transform="translate(-21,-338.7)"
       id="path917"
       style="fill:#000000" />
    <path
       class="cls-1"
       d="m 710.2,411.2 c -0.3,12.2 -1.3,22.5 -3.1,31 a 65.7,65.7 0 0 1 -11.3,24.6 62.4,62.4 0 0 1 -25.1,20.9 78.9,78.9 0 0 1 -33,6.8 84.6,84.6 0 0 1 -30.3,-5.3 70,70 0 0 1 -23.9,-15.3 66.9,66.9 0 0 1 -15.5,-23.6 81.9,81.9 0 0 1 -5.4,-30.2 83.8,83.8 0 0 1 5.5,-31 67.6,67.6 0 0 1 40,-39.5 87.9,87.9 0 0 1 30.9,-5.3 c 14.7,0 27.5,3.3 38.3,9.9 10.8,6.6 19.2,16.4 25.2,29.5 l -34.7,14.6 a 37,37 0 0 0 -11.8,-16.5 29.9,29.9 0 0 0 -18.7,-6 32,32 0 0 0 -15.5,3.8 34.4,34.4 0 0 0 -11.6,10.2 48.4,48.4 0 0 0 -7.1,14.4 54.6,54.6 0 0 0 -2.4,16.1 55.8,55.8 0 0 0 2.4,16.2 45.8,45.8 0 0 0 7.2,14.3 35.6,35.6 0 0 0 11.8,10 34,34 0 0 0 15.8,3.6 c 8.2,0 15,-2.1 20.3,-6.4 5.3,-4.3 8.4,-10.2 9.2,-18.1 h -29.9 v -28.7 z"
       transform="translate(-21,-338.7)"
       id="path919"
       style="fill:#000000" />
    <path
       class="cls-1"
       d="m 903.2,348.9 h 36.7 l 67,86.2 h 0.4 v -86.2 h 36.6 v 140.9 h -36.6 l -67.1,-86.3 h -0.3 v 86.3 h -36.7 z"
       transform="translate(-21,-338.7)"
       id="path921"
       style="fill:#000000" />
    <path
       class="cls-2"
       d="m 1077.3,482.1 a 8.3,8.3 0 0 1 -2.6,6 8.4,8.4 0 0 1 -6.2,2.5 8.8,8.8 0 0 1 -6.3,-2.5 8.5,8.5 0 0 1 -2.5,-6.3 8.2,8.2 0 0 1 2.5,-6.1 8.5,8.5 0 0 1 6.2,-2.6 8.8,8.8 0 0 1 6.3,2.6 9,9 0 0 1 2.6,6.4 z"
       transform="translate(-21,-338.7)"
       id="path923" />
    <path
       class="cls-2"
       d="m 1108.3,489.8 h -15.6 v -44.1 h -8.7 v -13.9 h 33.3 v 13.9 h -9 z"
       transform="translate(-21,-338.7)"
       id="path925" />
    <path
       class="cls-2"
       d="m 1153.2,489.8 h -16 l -13.3,-58 h 16.5 l 2.8,16.6 c 1.1,6.3 2,13.4 2.6,21.2 0.3,-3.4 0.6,-6.7 1,-9.7 0.4,-3 0.9,-6 1.5,-8.9 l 3.7,-19.2 h 17 z"
       transform="translate(-21,-338.7)"
       id="path927" />
  </g>
  <metadata
     id="metadata1012">
    <rdf:RDF>
      <cc:Work
         rdf:about="">
        <dc:title>OKT_TV</dc:title>
      </cc:Work>
    </rdf:RDF>
  </metadata>
</svg>
