<?xml version="1.0" encoding="UTF-8" standalone="no"?>
<!-- Generator: Adobe Illustrator 25.0.1, SVG Export Plug-In . SVG Version: 6.00 Build 0)  -->

<svg
   version="1.0"
   id="katman_1"
   x="0px"
   y="0px"
   viewBox="0 0 353.99545 177.2"
   xml:space="preserve"
   width="353.99545"
   height="177.2"
   xmlns="http://www.w3.org/2000/svg"
   xmlns:svg="http://www.w3.org/2000/svg"><defs
   id="defs945">
	
	
	
	
	
	
	
	
	
	
	
	
	
	
	
	
</defs>
<style
   type="text/css"
   id="style906">
	.st0{fill:#291B1B;}
</style>
<g
   id="g1204"
   transform="translate(-119.00453,-80)"
   style="fill:#ffffff"><path
     class="st0"
     d="m 271.1,80 32.8,100.4 22.7,-66 h 25.7 L 303.7,257.2 271.1,160 249.9,222.5 h -27.8 z m -62.5,127.9 c -2.1,2.7 -4.5,5.2 -7.2,7.3 -2.7,2.1 -5.7,3.9 -8.8,5.3 -3,1.3 -6.3,2 -9.6,2 h -48 c -2.7,0.1 -5.4,-0.4 -7.9,-1.4 -2.1,-0.8 -4,-2.2 -5.5,-3.9 -1.4,-1.7 -2.3,-3.7 -2.5,-5.9 -0.3,-2.3 0.1,-4.8 1.3,-7.5 l 25.2,-71.6 c 1.3,-3 3.2,-5.7 5.6,-7.9 2.5,-2.3 5.3,-4.3 8.3,-6 3,-1.7 6.2,-2.9 9.5,-3.8 3,-0.8 6.1,-1.3 9.2,-1.3 h 44.9 c 2.8,-0.1 5.5,0.5 8,1.5 2.1,0.9 4,2.3 5.3,4.2 1.3,1.8 2.1,4 2.3,6.2 0.2,2.6 -0.3,5.3 -1.3,7.7 l -23.8,66.8 c -1.3,3 -3,5.8 -5,8.3 z m -0.7,-74 H 174 l -24.5,70 H 183 Z M 371.1,114.4 H 473 l -7.4,21.8 h -72.4 l -6.5,19.1 h 52.4 l -8.2,23.9 h -52.4 l -5.3,15.4 h 72.3 l -9.6,27.8 H 334.2 Z"
     id="path908"
     style="fill:#ffffff" /></g>
</svg>
