<?xml version="1.0" encoding="UTF-8" standalone="no"?>
<svg
        height="24"
        viewBox="0 0 95.991814 22.153846"
        fill="none"
        role="img"
        focusable="false"
        aria-label="Pluto TV"
        version="1.1"
        id="svg205"
        width="95.991814"
        xmlns="http://www.w3.org/2000/svg"
>
    <g
            id="g323"
            transform="translate(0,-1)">
        <path
                d="m 80.902,12 c 0,-6.42409 0.595,-8.0448 0.595,-8.0448 l -1.8758,0.04199 c -4.4459,0.09237 -8.0489,3.49335 -8.0489,8.01121 0,4.5178 3.603,7.9188 8.0489,8.0112 l 1.8758,0.042 c 0,-0.0168 -0.595,-1.6291 -0.595,-8.0616 z"
                fill="#ff2cd2"
                id="path193"/>
        <path
                d="m 80.9021,12 c 0,-5.14767 2.7436,-8.08679 2.7436,-8.08679 L 81.4971,3.9552 C 77.0512,4.04757 73.4482,7.48214 73.4482,12 c 0,4.5178 3.603,7.9524 8.0489,8.0448 l 2.1486,0.042 c 0,0.0084 -2.7436,-2.9392 -2.7436,-8.0868 z"
                fill="#5e00ff"
                id="path195"/>
        <path
                d="m 80.902,12 c 0,-5.8111 4.8921,-8.13721 4.8921,-8.13721 l -2.1485,0.04199 c -4.4459,0.09237 -8.0489,3.56893 -8.0489,8.08682 0,4.5178 3.603,7.9944 8.0489,8.0867 l 2.1485,0.042 C 85.7941,20.1371 80.902,17.811 80.902,12 Z"
                fill="#ffde2b"
                id="path197"/>
        <path
                d="m 80.9021,12 c 0,-3.78729 2.4213,-7.71731 6.735,-8.17078 l -1.8428,0.04199 c -4.4459,0.09237 -8.0489,3.61932 -8.0489,8.13719 0,4.5178 3.603,8.0448 8.0489,8.1371 l 1.851,0.042 C 83.3399,19.7173 80.9021,15.7872 80.9021,12 Z"
                fill="#ff6700"
                id="path199"/>
        <path
                d="m 87.9429,3.82086 c -4.4459,0 -8.0489,3.6613 -8.0489,8.17914 0,4.5179 3.603,8.1792 8.0489,8.1792 4.4459,0 8.0489,-3.6613 8.0489,-8.1792 0.0083,-4.51784 -3.603,-8.17914 -8.0489,-8.17914 z m 3.1816,12.17634 h -1.504 l -2.1486,-5.282 h -2.1568 v 2.7208 c 0,0.5878 0.2809,0.9489 0.9338,0.9489 h 0.9503 v 1.6039 h -1.1735 c -1.5866,0 -2.4378,-0.9153 -2.4378,-2.4437 V 10.7068 H 82.398 V 9.17006 h 1.1899 V 8.07838 L 85.3068,7.373 v 1.79706 h 3.3881 l 1.661,4.40864 1.6776,-4.45063 h 1.8593 z"
                fill="#ffffff"
                id="path201"/>
        <path
                d="m 61.2592,3.82085 c -4.4459,0 -8.0489,3.6613 -8.0489,8.17915 0,4.5178 3.603,8.1791 8.0489,8.1791 4.4459,0 8.0489,-3.6613 8.0489,-8.1791 0.0082,-4.51785 -3.603,-8.17915 -8.0489,-8.17915 z m 0,11.93285 c -2.0412,0 -3.6939,-1.6795 -3.6939,-3.7537 0,-2.07418 1.6527,-3.75367 3.6939,-3.75367 2.0411,0 3.6939,1.67949 3.6939,3.75367 0,2.0742 -1.6528,3.7537 -3.6939,3.7537 z M 48.3595,8.3471 v 5.0637 c 0,1.5535 0.6776,2.2421 2.2064,2.2421 h 1.5371 v 4.2155 h -2.2395 c -1.8676,0 -3.3964,-0.5542 -4.4377,-1.6039 -1.0412,-1.0497 -1.5866,-2.6032 -1.5866,-4.4842 V 8.3471 H 41.0708 V 4.13156 h 2.7767 V 1.85584 L 48.3595,0 v 4.13156 h 3.7517 V 8.3471 Z M 39.3024,4.13156 V 12.739 c 0,4.1063 -3.2724,7.4401 -7.3217,7.4401 -4.0492,0 -7.3217,-3.3254 -7.3217,-7.4401 V 6.14696 l 4.479,-1.83905 v 8.57379 c 0,1.5872 1.2726,2.8804 2.8345,2.8804 1.5618,0 2.8344,-1.2932 2.8344,-2.8804 V 5.97061 Z M 22.7253,0 v 19.8684 h -4.512 V 1.85584 Z M 8.94964,3.82085 c -1.88413,0 -3.4873,0.64661 -4.67728,1.88104 L 3.65258,4.17355 0,5.6683 V 24 h 4.51201 v -5.4164 c 1.17345,1.0749 2.69398,1.5955 4.43763,1.5955 2.06596,0 3.96656,-0.8481 5.35496,-2.3932 1.3717,-1.52 2.1237,-3.569 2.1237,-5.7691 C 16.4366,7.42337 13.1476,3.82085 8.94964,3.82085 Z M 8.25549,15.7537 c -2.0742,0 -3.76001,-1.6795 -3.76001,-3.7537 0,-2.07418 1.67754,-3.75367 3.76001,-3.75367 2.07421,0 3.76001,1.67949 3.76001,3.75367 0,2.0742 -1.6858,3.7537 -3.76001,3.7537 z"
                fill="#ffffff"
                id="path203"/>
    </g>
</svg>
