<?xml version="1.0" encoding="UTF-8" standalone="no"?>
<svg
   viewBox="0 0 587.5 121.2"
   version="1.1"
   id="svg2720"
   xmlns="http://www.w3.org/2000/svg"
   xmlns:svg="http://www.w3.org/2000/svg">
  <defs
     id="defs2724" />
  <path
     d="M312.6 60.9q-4-1.5-15.2-2.7h-.6c-6.6-.7-11-1.4-13-2.1a6.7 6.7 0 01-2.3-1.4c-.3-.2-.5-.7-.5-1.4a2.8 2.8 0 01.6-1.8A6.2 6.2 0 01284 50q4.3-1.6 13-1.6a35.9 35.9 0 0110.4 1.4c2.8.8 4.7 1.8 5.8 3l.3.4 7.2-4.5a15.4 15.4 0 00-1.5-1.8 21 21 0 00-9.3-5.1 42.7 42.7 0 00-12.8-1.8q-10.5 0-16 2.2a14.2 14.2 0 00-6 4 11 11 0 00-2 3.3 11.6 11.6 0 00-.6 3.9 10.3 10.3 0 002.5 7 13.7 13.7 0 006 3.6q4 1.5 15 2.6h.7c6.6.8 11 1.5 13 2.2a6.3 6.3 0 012.4 1.3 2.3 2.3 0 01.4 1.4 2.9 2.9 0 01-.5 1.8 5.9 5.9 0 01-2.7 1.6q-4.3 1.6-12.9 1.6a37.5 37.5 0 01-10.4-1.4 14.2 14.2 0 01-5.7-2.9 1.6 1.6 0 01-.4-.5l-7.1 4.5a8.4 8.4 0 001.4 1.9 20.6 20.6 0 009.4 5 44.7 44.7 0 0012.9 2q10.2 0 16-2.3a13.7 13.7 0 006-4 11 11 0 001.8-3.3 12 12 0 00.7-3.9 10.2 10.2 0 00-2.6-7 13.6 13.6 0 00-5.9-3.6zm56.8-15.8a13.2 13.2 0 00-4.2-2.8v-.1a12.8 12.8 0 00-5.2-1h-34.5v43.2h8.6V67.9H360a14 14 0 005.3-1 14.6 14.6 0 004.2-2.9 13.3 13.3 0 002.9-4.3 13.8 13.8 0 001-5.2 14 14 0 00-1-5.2 13.5 13.5 0 00-3-4.2zm-5.7 13.3A5.3 5.3 0 01360 60H334V49.2H360a5.5 5.5 0 015.5 5.4 5 5 0 01-1.7 3.8zm56.8-12.2q-7.5-6-18.5-6a28.8 28.8 0 00-18.6 6 23.3 23.3 0 00-5.8 7.2 19.8 19.8 0 00-2.3 9.2q0 10 8.2 16.4 7.4 6 18.5 6 10.9 0 18.6-6a21.8 21.8 0 005.8-7.2 19.5 19.5 0 002.2-9.2 20 20 0 00-8.1-16.4zM418.9 68a13 13 0 01-3.7 4.4 20.6 20.6 0 01-13.3 4.3c-5.3 0-9.8-1.4-13.3-4.2A14 14 0 01385 68a11.7 11.7 0 010-10.8 12.2 12.2 0 013.6-4.4 23 23 0 0126.7 0 15.5 15.5 0 013.6 4.3 11.5 11.5 0 011.3 5.4A11.3 11.3 0 01419 68zm61.4-13.5a13.8 13.8 0 00-1-5.2 13.2 13.2 0 00-3-4.3 13.4 13.4 0 00-4.2-2.9 12.6 12.6 0 00-5.2-1h-35v43.3h8.7V68h18.7l10 16.3h10.3l-10.3-16.6a9.2 9.2 0 002.8-.7 13.8 13.8 0 004.3-3 13.6 13.6 0 004-9.6zm-9.8 3.9a5 5 0 01-3.7 1.5h-26.3V49.3H467a5 5 0 013.7 1.5 5.5 5.5 0 011.5 3.8 5.1 5.1 0 01-1.6 3.8zm12.5-8.6h21.3v34.8h8.6V49.8h21.3v-8.7H483zm102 14.8A13.8 13.8 0 00579 61q-4-1.5-15.1-2.7h-.6c-6.7-.7-11-1.4-13-2.1a6.8 6.8 0 01-2.4-1.4c-.3-.2-.5-.7-.5-1.4a2.9 2.9 0 01.6-1.8 6.3 6.3 0 012.6-1.6c2.8-1 7.1-1.6 13-1.6a35.8 35.8 0 0110.4 1.4c2.7.8 4.6 1.8 5.7 3l.3.4 7.2-4.5a14.4 14.4 0 00-1.4-1.8 21 21 0 00-9.4-5.1 42.7 42.7 0 00-12.8-1.8q-10.5 0-16 2.2a14.2 14.2 0 00-6 4 10.6 10.6 0 00-1.9 3.3 11.6 11.6 0 00-.7 3.9 10.3 10.3 0 002.6 7 13.7 13.7 0 005.8 3.6c2.8 1 7.8 2 15.1 2.7h.7a75 75 0 0113 2.1 6.4 6.4 0 012.4 1.4 2.3 2.3 0 01.5 1.4 2.9 2.9 0 01-.6 1.7 6 6 0 01-2.6 1.6q-4.3 1.6-13 1.6a37.6 37.6 0 01-10.5-1.3 14.2 14.2 0 01-5.7-3 1.6 1.6 0 01-.3-.4l-7.2 4.5a8.4 8.4 0 001.5 1.8 20.6 20.6 0 009.4 5.1A44.7 44.7 0 00563 85q10.3 0 16-2.2a13.9 13.9 0 006-4 11.2 11.2 0 002-3.3 12.4 12.4 0 00.5-3.9 10.2 10.2 0 00-2.5-6.9zM159.2 7.4h109.3V0H159.2zm0 113.8h109.3v-7.4H159.2zM264 12l-1.2-1.2a1.7 1.7 0 00-2.4 0l-94.5 94.5a1.7 1.7 0 000 2.5l1.2 1.2a1.7 1.7 0 002.4 0L264 14.5a1.7 1.7 0 000-2.5zm0 14.7l-1.2-1.2a1.7 1.7 0 00-2.5 0l-79.6 79.9a1.7 1.7 0 000 2.4l1.2 1.2a1.7 1.7 0 002.5 0L264 29.1a1.7 1.7 0 000-2.4zm0 13.5l-1.2-1.3a1.7 1.7 0 00-2.4 0L194 105.3a1.7 1.7 0 000 2.4l1.2 1.3a1.7 1.7 0 002.5 0L264 42.6a1.7 1.7 0 000-2.4zm-98.6-29.4l-1.2 1.3a1.7 1.7 0 000 2.4l39.3 39.3a1.7 1.7 0 002.4 0l1.2-1.3a1.7 1.7 0 000-2.4l-39.3-39.3a1.7 1.7 0 00-2.4 0zm69.4 69.5l-1.2 1.3a1.7 1.7 0 000 2.4l25 25a1.7 1.7 0 002.5 0l1.2-1.2a1.7 1.7 0 000-2.5l-25-25a1.7 1.7 0 00-2.5 0zM182.7 11a1.7 1.7 0 00-2.5 0L179 12a1.7 1.7 0 000 2.4L212.2 48a1.7 1.7 0 002.5 0l1.2-1.2a1.7 1.7 0 000-2.5zm-140 30L27 57l-15.6-16H0l21.3 21.7L0 84.2h11.4L27 68.4l15.7 15.8H54L32.7 62.6 54 41zm39.7 18.8L66 41H55.2L78 67v17.2h8.7V67L109.5 41H98.7zm29.4-11h34.5l-34.6 27.6v7.8h46.9v-7.8h-34.5l34.6-27.7V41h-46.9z"
     id="path2718"
     style="fill:#ffffff" />
</svg>
