<?xml version="1.0" encoding="UTF-8" standalone="no"?>
<svg
   version="1.1"
   id="Layer_1"
   x="0"
   y="0"
   viewBox="0 0 380.9 85"
   xml:space="preserve"
   xmlns="http://www.w3.org/2000/svg"
   xmlns:svg="http://www.w3.org/2000/svg"><defs
     id="defs1802" /><style
     id="style1787">.st2{fill:#282828}</style><path
     d="M 118.9,13.3 C 117.5,8.1 113.4,4 108.2,2.6 98.7,0 60.7,0 60.7,0 60.7,0 22.7,0 13.2,2.5 8.1,3.9 3.9,8.1 2.5,13.3 0,22.8 0,42.5 0,42.5 0,42.5 0,62.3 2.5,71.7 3.9,76.9 8,81 13.2,82.4 22.8,85 60.7,85 60.7,85 c 0,0 38,0 47.5,-2.5 5.2,-1.4 9.3,-5.5 10.7,-10.7 2.5,-9.5 2.5,-29.2 2.5,-29.2 0,0 0.1,-19.8 -2.5,-29.3 z"
     fill="#ff0000"
     id="path1789" /><path
     fill="#ffffff"
     d="M 48.6,60.7 80.2,42.5 48.6,24.3 Z"
     id="path1791" /><g
     id="g1797"
     style="fill:#ffffff"><path
       class="st2"
       d="m 176.3,77.4 c -2.4,-1.6 -4.1,-4.1 -5.1,-7.6 -1,-3.4 -1.5,-8 -1.5,-13.6 v -7.7 c 0,-5.7 0.6,-10.3 1.7,-13.8 1.2,-3.5 3,-6 5.4,-7.6 2.5,-1.6 5.7,-2.4 9.7,-2.4 3.9,0 7.1,0.8 9.5,2.4 2.4,1.6 4.1,4.2 5.2,7.6 1.1,3.4 1.7,8 1.7,13.8 v 7.7 c 0,5.7 -0.5,10.2 -1.6,13.7 -1.1,3.4 -2.8,6 -5.2,7.6 -2.4,1.6 -5.7,2.4 -9.8,2.4 -4.2,-0.1 -7.6,-0.9 -10,-2.5 z M 189.8,69 c 0.7,-1.7 1,-4.6 1,-8.5 V 43.9 c 0,-3.8 -0.3,-6.6 -1,-8.4 -0.7,-1.8 -1.8,-2.6 -3.5,-2.6 -1.6,0 -2.8,0.9 -3.4,2.6 -0.7,1.8 -1,4.6 -1,8.4 v 16.6 c 0,3.9 0.3,6.8 1,8.5 0.6,1.7 1.8,2.6 3.5,2.6 1.6,0 2.7,-0.8 3.4,-2.6 z M 360.9,56.3 V 59 c 0,3.4 0.1,6 0.3,7.7 0.2,1.7 0.6,3 1.3,3.7 0.6,0.8 1.6,1.2 3,1.2 1.8,0 3,-0.7 3.7,-2.1 0.7,-1.4 1,-3.7 1.1,-7 l 10.3,0.6 c 0.1,0.5 0.1,1.1 0.1,1.9 0,4.9 -1.3,8.6 -4,11 -2.7,2.4 -6.5,3.6 -11.4,3.6 -5.9,0 -10,-1.9 -12.4,-5.6 -2.4,-3.7 -3.6,-9.4 -3.6,-17.2 v -9.3 c 0,-8 1.2,-13.8 3.7,-17.5 2.5,-3.7 6.7,-5.5 12.6,-5.5 4.1,0 7.3,0.8 9.5,2.3 2.2,1.5 3.7,3.9 4.6,7 0.9,3.2 1.3,7.6 1.3,13.2 v 9.1 h -20.1 z m 1.5,-22.4 c -0.6,0.8 -1,2 -1.2,3.7 -0.2,1.7 -0.3,4.3 -0.3,7.8 v 3.8 h 8.8 v -3.8 c 0,-3.4 -0.1,-6 -0.3,-7.8 -0.2,-1.8 -0.7,-3 -1.3,-3.7 -0.6,-0.7 -1.6,-1.1 -2.8,-1.1 -1.4,-0.1 -2.3,0.3 -2.9,1.1 z M 147.1,55.3 133.5,6 h 11.9 l 4.8,22.3 c 1.2,5.5 2.1,10.2 2.7,14.1 h 0.3 c 0.4,-2.8 1.3,-7.4 2.7,-14 l 5,-22.4 h 11.9 L 159,55.3 V 78.9 H 147.2 V 55.3 Z M 241.6,25.7 V 79 h -9.4 l -1,-6.5 h -0.3 c -2.5,4.9 -6.4,7.4 -11.5,7.4 -3.5,0 -6.1,-1.2 -7.8,-3.5 -1.7,-2.3 -2.5,-5.9 -2.5,-10.9 V 25.7 h 12 v 39.1 c 0,2.4 0.3,4.1 0.8,5.1 0.5,1 1.4,1.5 2.6,1.5 1,0 2,-0.3 3,-1 1,-0.6 1.7,-1.4 2.1,-2.4 V 25.7 Z m 61.5,0 V 79 h -9.4 l -1,-6.5 h -0.3 c -2.5,4.9 -6.4,7.4 -11.5,7.4 -3.5,0 -6.1,-1.2 -7.8,-3.5 -1.7,-2.3 -2.5,-5.9 -2.5,-10.9 V 25.7 h 12 v 39.1 c 0,2.4 0.3,4.1 0.8,5.1 0.5,1 1.4,1.5 2.6,1.5 1,0 2,-0.3 3,-1 1,-0.6 1.7,-1.4 2.1,-2.4 V 25.7 Z"
       id="path1793"
       style="fill:#ffffff" /><path
       class="st2"
       d="M 274.2,15.7 H 262.3 V 78.9 H 250.6 V 15.7 H 238.7 V 6 h 35.5 z m 68.6,18.5 c -0.7,-3.4 -1.9,-5.8 -3.5,-7.3 -1.6,-1.5 -3.9,-2.3 -6.7,-2.3 -2.2,0 -4.3,0.6 -6.2,1.9 -1.9,1.2 -3.4,2.9 -4.4,4.9 h -0.1 V 3.3 h -11.6 v 75.6 h 9.9 l 1.2,-5 h 0.3 c 0.9,1.8 2.3,3.2 4.2,4.3 1.9,1 3.9,1.6 6.2,1.6 4.1,0 7,-1.9 8.9,-5.6 1.9,-3.7 2.9,-9.6 2.9,-17.5 v -8.4 c -0.1,-6.1 -0.4,-10.8 -1.1,-14.1 z m -11,21.7 c 0,3.9 -0.2,6.9 -0.5,9.1 -0.3,2.2 -0.9,3.8 -1.6,4.7 -0.8,0.9 -1.8,1.4 -3,1.4 -1,0 -1.9,-0.2 -2.7,-0.7 -0.8,-0.5 -1.5,-1.2 -2,-2.1 V 38.1 c 0.4,-1.4 1.1,-2.6 2.1,-3.6 1,-0.9 2.1,-1.4 3.2,-1.4 1.2,0 2.2,0.5 2.8,1.4 0.7,1 1.1,2.6 1.4,4.8 0.3,2.3 0.4,5.5 0.4,9.6 v 7 z"
       id="path1795"
       style="fill:#ffffff" /></g></svg>
