<?xml version="1.0" encoding="UTF-8" standalone="no"?>
<svg
   version="1.0"
   width="658.30927"
   height="259.56287"
   viewBox="-7.3309881 -7.3309881 278.22052 109.68044"
   id="svg2552"
   xmlns="http://www.w3.org/2000/svg"
   xmlns:svg="http://www.w3.org/2000/svg"
   xmlns:rdf="http://www.w3.org/1999/02/22-rdf-syntax-ns#"
   xmlns:cc="http://creativecommons.org/ns#"
   xmlns:dc="http://purl.org/dc/elements/1.1/">
  <metadata
     id="metadata899">
    <rdf:RDF>
      <cc:Work
         rdf:about="">
        <dc:format>image/svg+xml</dc:format>
        <dc:type
           rdf:resource="http://purl.org/dc/dcmitype/StillImage" />
      </cc:Work>
    </rdf:RDF>
  </metadata>
  <defs
     id="defs2554" />
  <g
     id="g2986">
    <path
       d="M 133.68575,83.022913 H 107.9995 v -71.02252 h 25.68625 c 20.18375,0 27.4425,8.635 27.4425,35.50872 0,26.8675 -7.25875,35.5138 -27.4425,35.5138 m 96.42875,-71.02252 h 40.77503 V -7.340857 H 221.777 c -26.415,0 -37.26375,14.785 -37.26375,37.95877 l -0.0175,2.2662 c -4.4175,-27.28747 -20.62625,-40.22497 -50.3275,-40.22497 h -49.7775 c -0.83556,34.38273 0.21451,66.57523 -0.41375,109.698767 h 50.77625 c 12.1575,0 23.05875,-0.7225 34.22375,-9.616297 8.02625,-6.385 13.075,-15.3587 15.39875,-27.1375 V 102.21411 H 207.652 l 0.0337,-43.092497 h 54.94125 v -19.18 h -54.975 l 0.31625,-7.7637 c 0,-12.58127 3.78,-20.17752 22.14625,-20.17752"
       id="path2482"
       style="fill:#fa7d19;fill-opacity:1;fill-rule:nonzero;stroke:none" />
    <path
       d="m 29.92776,38.088013 h 15.17 c 12.07625,0 19.185,-2.4212 19.185,-12.645 0,-10.50499 -7.10875,-13.44249 -19.4775,-13.44249 H -6.65349 v -19.34125 h 59.86375 c 30.37375,0 34.67125,21.2575 34.67125,33.11124 0,12.6163 -5.1475,32.6275 -34.71125,32.6275 h -14.6875 c -18.3775,0 -22.33625,6.6438 -22.33625,19.215 v 5.875 h 68.7225 v 18.726297 h -92.2 V 74.996813 c 0,-23.1388 10.88375,-36.9088 37.25875,-36.9088"
       id="path2486"
       style="fill:#fa7d19;fill-opacity:1;fill-rule:nonzero;stroke:none" />
  </g>
</svg>
