<?xml version="1.0" standalone="no"?>
<!DOCTYPE svg PUBLIC "-//W3C//DTD SVG 20010904//EN"
 "http://www.w3.org/TR/2001/REC-SVG-20010904/DTD/svg10.dtd">
<svg version="1.0" xmlns="http://www.w3.org/2000/svg"
 width="1000.000000pt" height="1000.000000pt" viewBox="0 0 1000.000000 1000.000000"
 preserveAspectRatio="xMidYMid meet">
<metadata>
Created by potrace 1.11, written by Peter Selinger 2001-2013
</metadata>
<g transform="translate(0.000000,1000.000000) scale(0.100000,-0.100000)"
fill="#000000" stroke="none">
<path d="M425 9983 c-107 -56 -140 -136 -152 -369 -12 -238 -10 -283 16 -334
68 -129 153 -168 261 -119 57 26 95 61 121 115 24 50 54 72 101 75 42 3 64 -4
167 -53 96 -46 134 -80 249 -224 82 -103 143 -160 222 -209 54 -33 168 -123
228 -179 71 -67 127 -145 186 -263 31 -60 64 -120 74 -131 9 -12 28 -36 42
-54 34 -44 144 -152 206 -202 188 -151 294 -238 324 -266 91 -86 295 -265 390
-342 94 -76 401 -309 460 -348 12 -8 32 -22 44 -31 34 -25 311 -210 436 -290
187 -120 402 -293 555 -445 143 -143 146 -147 170 -241 21 -79 26 -109 41
-220 7 -57 14 -179 19 -360 6 -207 16 -357 29 -418 2 -11 7 -40 11 -65 10 -59
11 -65 29 -135 8 -33 18 -73 21 -90 2 -16 7 -41 10 -55 6 -28 6 -31 40 -215
24 -136 36 -207 40 -240 2 -11 8 -54 14 -95 23 -158 35 -330 35 -505 0 -193
-8 -295 -36 -450 -17 -103 -19 -109 -33 -160 -13 -45 -18 -75 -29 -162 -2 -15
-7 -47 -10 -70 -3 -24 -9 -62 -12 -85 -3 -24 -7 -54 -9 -68 -2 -14 -7 -54 -10
-90 -4 -36 -8 -72 -10 -80 -1 -8 -6 -46 -9 -85 -4 -38 -9 -81 -11 -95 -2 -14
-7 -61 -10 -105 -4 -44 -8 -91 -10 -105 -8 -78 -16 -172 -20 -225 -3 -33 -7
-82 -10 -110 -24 -259 -23 -286 12 -425 53 -206 90 -249 222 -255 150 -7 272
-32 303 -62 26 -26 29 -55 13 -111 -7 -26 -16 -83 -19 -127 -10 -153 -38 -341
-56 -390 -9 -23 -5 -29 33 -56 37 -28 91 -56 152 -80 35 -14 72 -23 140 -34
17 -3 41 -7 55 -10 29 -5 109 -15 160 -21 153 -16 275 -56 400 -131 105 -63
173 -78 350 -77 99 0 140 5 196 22 202 62 213 169 28 287 -81 52 -267 144
-418 207 -64 27 -228 142 -294 207 -80 77 -135 172 -147 256 -6 41 -7 196 -1
250 2 17 7 66 11 110 4 44 9 89 11 100 2 10 6 62 9 115 3 52 8 111 10 130 3
19 7 49 10 65 5 40 15 104 20 135 3 14 7 39 9 55 3 17 21 127 40 245 19 118
38 235 41 260 3 25 8 61 10 80 3 19 7 58 10 85 3 28 7 66 10 85 2 19 7 87 10
150 5 93 13 134 40 215 28 86 43 148 70 285 14 73 20 162 20 320 0 179 -3 218
-29 375 -8 50 -17 115 -21 145 -3 30 -8 66 -10 80 -3 14 -7 43 -10 65 -6 50
-16 122 -21 155 -2 14 -6 50 -10 80 -3 30 -8 63 -10 74 -2 10 -6 51 -10 90 -3
39 -8 82 -10 96 -11 67 -20 325 -15 452 1 32 43 57 131 80 59 16 231 17 400 3
52 -4 109 -8 125 -8 50 0 248 14 254 17 3 2 38 7 76 10 39 4 77 9 85 11 8 3
32 7 52 9 21 3 63 10 95 16 32 5 72 13 88 15 17 3 77 15 135 26 120 23 306 56
365 64 22 3 46 8 53 10 15 5 156 -116 201 -174 41 -51 68 -115 74 -171 3 -25
11 -59 18 -77 12 -29 11 -34 -6 -54 -29 -31 -70 -50 -118 -53 -63 -5 -70 6
-41 67 13 29 24 71 24 95 0 106 -85 201 -160 177 -34 -11 -58 -58 -73 -146
-10 -58 -34 -130 -77 -229 -86 -201 -94 -229 -93 -342 1 -93 14 -161 37 -183
35 -34 100 -60 197 -79 8 -2 32 -6 54 -11 22 -4 61 -16 86 -27 l46 -19 139 77
c194 107 238 138 333 234 146 148 191 225 216 366 26 153 57 240 165 469 104
220 120 257 152 358 30 94 33 112 33 237 0 74 -3 159 -8 188 -7 48 -74 317
-113 452 -37 127 -63 243 -58 251 10 17 97 56 184 83 47 15 135 43 196 63
l111 35 151 147 c168 164 199 202 242 293 37 80 41 101 46 225 6 155 -34 321
-106 450 -58 103 -145 189 -234 233 -79 39 -109 45 -221 44 -108 -1 -220 -29
-315 -80 -104 -57 -149 -96 -220 -192 -15 -20 -36 -46 -47 -58 -11 -11 -66
-81 -121 -156 -145 -196 -169 -222 -218 -244 -62 -26 -101 -8 -221 102 -159
147 -217 194 -278 223 -67 32 -140 57 -200 67 -22 4 -49 8 -60 11 -11 2 -60
11 -110 19 -49 9 -121 25 -160 35 -105 29 -287 66 -405 83 -99 14 -135 18
-285 32 -33 3 -78 7 -100 9 -56 6 -416 18 -565 18 -175 1 -263 -30 -342 -122
-57 -67 -68 -132 -48 -276 13 -84 40 -132 117 -207 180 -174 232 -231 242
-264 16 -56 -30 -167 -79 -189 -8 -4 -49 -14 -90 -21 -240 -45 -323 -34 -441
53 -30 22 -205 129 -389 238 -452 267 -609 364 -845 520 -174 116 -426 295
-461 329 -29 28 -254 196 -361 270 -196 135 -526 341 -713 444 -30 16 -101 57
-158 91 -57 34 -105 61 -108 61 -2 0 -106 59 -231 131 -126 73 -244 141 -263
152 -19 11 -53 32 -75 47 -107 73 -320 159 -459 184 -11 2 -41 10 -66 17 -25
7 -47 13 -50 13 -3 1 -10 4 -15 8 -6 3 -46 15 -90 26 -73 18 -111 26 -185 38
-67 11 -178 38 -228 55 -65 22 -59 22 -97 2z"/>
</g>
</svg>
